/* XPM */
static char *adc43f164cf84599a20eac110514ccc0u7EkXJLpQbVijdfA[] = {
/* columns rows colors chars-per-pixel */
"64 64 117 2 ",
"   c gray12",
".  c #3F0000",
"X  c #211F20",
"o  c #3F003F",
"O  c #1F2120",
"+  c #202020",
"@  c #2C2C2C",
"#  c #363635",
"$  c #393937",
"%  c #393739",
"&  c #373938",
"*  c #383838",
"=  c #400000",
"-  c #4C0000",
";  c #570000",
":  c #580000",
">  c #640000",
",  c #6F0000",
"<  c #700000",
"1  c #7C0000",
"2  c #553C1D",
"3  c #40003F",
"4  c #595400",
"5  c #6F6D00",
"6  c #706C00",
"7  c #744C27",
"8  c #744C28",
"9  c #430043",
"0  c #480147",
"q  c #470048",
"w  c #49004A",
"e  c #51004F",
"r  c #4F0051",
"t  c #520052",
"y  c #580057",
"u  c #590158",
"i  c #5F0064",
"p  c #600064",
"a  c #6C006F",
"s  c #6C0070",
"d  c #434343",
"f  c #474946",
"g  c #484846",
"h  c #474749",
"j  c #494748",
"k  c #474948",
"l  c #484848",
"z  c #545454",
"x  c #646464",
"c  c #6F6F6F",
"v  c #706E6F",
"b  c #6F716E",
"n  c #70706E",
"m  c #716F70",
"M  c #6F7170",
"N  c #707070",
"B  c #7C7C7C",
"V  c #870000",
"C  c #880000",
"Z  c #960000",
"A  c #980000",
"S  c #A40000",
"D  c #B00000",
"F  c #BC0000",
"G  c #C80000",
"H  c #D40000",
"J  c #E00000",
"K  c #EC0000",
"L  c #FC0000",
"P  c #FE1F20",
"I  c #FC2020",
"U  c #B45400",
"Y  c #CC5F00",
"T  c #CC6000",
"R  c #FD7801",
"E  c #A86940",
"W  c #848400",
"Q  c #9C9C00",
"!  c #FC891F",
"~  c #CCC401",
"^  c #E5D800",
"/  c #FEF503",
"(  c #E88D58",
")  c #840185",
"_  c #850188",
"`  c #9C009C",
"'  c #8C8C8C",
"]  c #979797",
"[  c #979996",
"{  c #989896",
"}  c #979799",
"|  c #999798",
" . c #979998",
".. c #989898",
"X. c #A7A7A7",
"o. c #A8A6A7",
"O. c #A7A9A6",
"+. c #A8A8A6",
"@. c #A9A7A8",
"#. c #A7A9A9",
"$. c #A8A8A8",
"%. c #B4B4B4",
"&. c #BFC1BE",
"*. c #C0C0BE",
"=. c #C0C0BE",
"-. c #C1BFC0",
";. c #C1BFC0",
":. c #BFC1C0",
">. c #C0C0C0",
",. c #C1C1C1",
"<. c #C0C0C2",
"1. c #C0C0C0",
"2. c #D0D0CE",
"3. c #CFD1D0",
"4. c #D0D0D0",
"5. c gray82",
"6. c #D0D0D0",
/* pixels */
"* * * * * * % * * * % * * * * * * * * * * * * * * * * * * * * * * % * * * # % * * * * % * * * * * % * * % * * * * * * * * * * * ",
"z * z l l l l l z l l l l l l z l * l l l l l l l z z z z z z h l l l l l l j l z z z z z z z h l l l * * * l l z z l k l l l * ",
"# K K H H H H H H H H H S h l z K K H H H H H H H H H H H H H H H H H H S h * z K K K K J J J J J J H H H H H G G G G F F F S l ",
"l / G D D H C S H C G S > @ l z K F C F C F C F 1 F A F A F 1 F 1 F G S , @ l * H S G D G D D G < G 1 G D G C D S 1 G A G S / @ ",
"^ ~ W %.%.%.%.%.%.%.%.%.%.%.%.%.%.%.%.%.%.%.%.%.%.%.%.%.%.%.%.%.%.%.%.%.%.%.%.%.%.%.%.%.%.%.%.%.%.%.%.%.%.%.%.%.%.%.%.%.%.~ ~ 5 ",
"E Q 4 c N B B B B B B B B B B B B B B B B B B B B B B B B B B B B B B B B B B B B B B B B B B B B B B B B B B B B B N m M 5 ( 4 ",
"l 2 S B B B B ..............] ] ........ . .| .............. ............... .{ ............ .............| ....| B N B B ; E @ ",
"l F 1  .B I S = = z < , < < < < < < < < < , < , , < < < < < < < , < < < < < < , < < < < < < , , < < S D L J B = = . B <.M ; . @ ",
"l F S $.B S <.{ N = B X.<.4.*.<.%.%.%.%.%.%.%.%.%.%.%.%.%.%.%.%.%.%.%.%.%.%.%.%.%.%.%.%.%.%.%.%.<.*.<.;.;.B = B N ..I B N : = @ ",
"l 1 > %.... ..<...B ' ..$.$.' B $.4.<.%.%.%.%.%.%.%.%.%.%.%.%.%.%.%.%.%.%.%.%.%.%.%.%.%.%.%.%.' s x ;.%.$.$.$.N #.3.S N B = = @ ",
"l l @ 4.$.= ] $.<...B B  .{ z y N $.4.4.*.*.%.%.%.%.%.%.%.%.%.%.%.%.%.%.%.%.%.%.%.%.%.%.>.>.' x p t ..$.$.| { $.6.B = B ..+ + @ ",
"z % * 4.%.z N { %.<.] B B ' r y y y B $.4.<.*.<.,.<.%.%.w b z r r e t U T R %.%.%.%.:.:.' x i u r r ....{ ] $.2.<.x z ' $.X @ @ ",
"K H H %.4.= B ] $.%.<. .N x l w r r y y B $.%.%.%.%.%.%.r r r r r B r U U T ! %.%.%.' x p y r r r l  .....$.<.<.$.B =  .$.: : H ",
"D C C %.4.< ..'  .+.%.x y N x l q w r r y y y B ' %.%.%.N r r r r r r U ' %.%.' x p p y y t r r l N N r x $.<.+.' B = $.%.: : D ",
"C S C %.4.D $.{ ' ..x a i l n x g q q w w ) y y y N ' %.%.r r r r r r ' %.' x p p y ) r r r q g N z s p p x $.] B ' < $.%.: : A ",
"< S S %.%.A %. .' ' w p s p y l x g * w q s w y y y y %.%.r r r r r r %.%.y i p y r a w w * l x l r p p s s  .' B ' < $.%.: ; 1 ",
"S C C %.%.C <.X...' q w i s p p y l z * 3 o w w q y z %.%.t r r r r t %.%.z q 0 w q q w * l g q r y p s s s ' B ' ' < $.%.: : 1 ",
", S > %.%., 4.%.$...l w w i s s p y q o 3 3 9 q q ' %.%.b r r r r r r n %.%.' w w w 3 3 3 q q r y p s s s z ' B ' ..< %.%.: : C ",
"< D > %.%.< 4.<.%...x l q y i p s p y s 3 3 o q ' r M %.r r r r r r r r %.b q ' q 3 o w u q q y p a s s z B B ' ' $.< %.%.: : < ",
"= - - %.%.< 4.4.x r c z z l y p i s y ) r 3 o w t w r %.%.r t r r r r %.%.q w q q w q y s r y i p a z B x l l x ..$.< %.%.= : = ",
"@ @ @ %.%.< %.4.y r w l z z z l p p s y ) r r r q r w B x r r r r r r x B w w q w q w a y y i i z ' B x g o o w ..$.< %.%.+ + @ ",
"z z l %.%.< %.4.p y r q q 9 * j l z x y y y y w w q r r t r r r r r r r w q q w w q r r y z x ' B z r w 3 9 3 q $.$.< %.%.+ @ @ ",
"z K K <.<.1 <.%.i p r r q 3 3 3 w q y ` y y y q q r t r r r t r r r r r w w w w w r y y ` y y y e t w o o 3 3 y $.$.< %.%.: : @ ",
"z K C 4.2.A 2.*.y p y r q w 3 3 o w q ) y y y r r r r r r r t w r r r r r w w w r y y y ` y y y w w w 3 3 3 w y ..$.1 %.%.: = @ ",
"* K D <.<.C &...N y p t r w 9 3 w 3 w a y y t r r r r r z z x N N x z z r r r y y y y y ) y y r q w 3 o 3 9 w N ..$.1 %.%.: = @ ",
"h F > %.%.1 %.....c l u r q q q r q w y s r r r r r r r x s ` s s ` s x r r y y y y y ) y y r w q w 3 o o l N ....%.C %.%.: = @ ",
"l F D %.%.< %.r u l x c M x x z l d # w r y ) y r r r r B ` s s s s ` B r u t u y _ y y y z z l d # d g z x l p s <.A <.<.: = @ ",
"z F , $.$.< $.r r y y y u r q r q t q r q r y ) s r r r z s s s s s s z r r u s ) y y y y r w q w q 9 w w w y p s 4.A 4.2.: = @ ",
"j G S $.X.> $.r r r y u y r t q w w r w r t r r r r r r B ` s s s s ` B r y r y r y y y r q w q w q w w r y y p p <.A <.<.: = @ ",
"l S A  .{ - { r r y r u r y r r r t r r r r t t r r r r z s ` l s ` s z r r y r y y y r w w q w q w 0 w r r p a p &.C <.*.: = @ ",
"l j * X.$.: $.r r t y r y r r r r r r z r r t w z r t t B z s l s s z B r u r z y r r r z w q w w w w w t t p i r %.1 %.%.O O @ ",
"z z z $.$.> $.x r w t r r r r r j N r t r r r z r r w t z B B z z B B z r r r y z r t w t w n l w w w w w y p y x %.< %.%.+ @ @ ",
"F F F %.%.< %...x r r r r l c M r r r r r r N r r r r r r r z B B z r r r r u r r N r r q w w r M b j r r y y x  .%.< %.%.: : F ",
"S D S %.%.< %.%.%.......{ N r r r t r r r b r r r r r r r r r r w r r r r r r r r r N w r q 0 q w r v  .......%.$.$.> $.$.: : S ",
"S 1 C %.%.< %.%.] ..N t r r r r r r r r m r r r r r r r r r r r r r t r t r r r r r r N q r w r w r y y y M .. . ...: ....: : < ",
"C 1 S %.%.< %.%.t r t w r r r r r r r N r r r r b r M r r r r t r r r r r N r N t t w r N w r w r y y y y y r t ' ' - ' ' : : < ",
"S C 1 %.%.< %.%.r r r r r r r r r r N r r r r x ..N r r r r r r r t r r r r b ..x r r r r N t r r r y u y y r r ....: ..] ; ; C ",
"S C 1 %.%.1 %.%.M r r r r r r r r b r r r r r  .r r t r r r r r r t r r r r r r ..t r r w r M r r y y u u y t N ....> ....: : < ",
"< < C %.%.1 %.%. .t r r r r r t M t t r t r  .r r r r r r r r r r r r r r r r r r  .r r t t t N r r y r y r w ..$.$.> $.$.: : < ",
"= = - %.%.C %.%.%.N t r r r t N r r r r r r r r t r r r r t r r r r t t w r r r t r r r r r t w b r r r y r N %.%.%.> %.%.: : = ",
"@ @ @ <.<.C <.*.<.%.N r r r N r r r r r r ..r t r r r r r r t r r r r r r r t r r t  .w r r t r r b r r r M %.%.%.%.< %.%.+ + @ ",
"z l z 4.4.S 4.4.5.%.%. ... ...r r r r r ..%.` r r r r t r b t w r r b r r r r r r ` %...r r r r r {  . ...%.%.%.%.%.< %.%.+ @ @ ",
"* K H <.<.A <.*.<.%.%.%.%.%. . .r r r ..%.%.%.n r r r r r r r r r r r r r r r t N %.%.%...r r t ....%.%.%.%.%.%.<.*.C *.<.: : @ ",
"z H S %.%.A %.%.%.%.%.%.%.B U U B %.%.%.%.B U r r r r r r r r r r r r r r r r t t U B %.%.%.%.B U U B %.%.<.<.<.<.<.C <.<.: = @ ",
"l H S %.%.C %.%.%.%.%.%.%.U U U U U U U U U U 8 7 r r b %.r r r r r r %.b r w 8 8 U U U U U U U U U U :.<.<.<.2.3.2.A 4.2.: = @ ",
"l H C %.%.C %.%.%.%.%.%.%.%.B x 8 U U U U 8 8 B %.%.%.%.r r r r r r r r %.%.%.%.B 8 8 U U U U 8 x B %.%.%.*.*.<.<.<.A *.<.: = @ ",
"* H S %.%.1 %.%.%.%.%.%.%.' U U U U U U U U U U %.%.%.t r r r r r r r r r %.%.%.U U U U U U U U U U ' %.%.%.%.%.*.<.C <.<.: = @ ",
"z H S $.$.< $.$.X.X.%.%.%.U 8 8 ' U U 8 %.' 8 U %.B r r r r r r r t r r r r B %.U 8 ' %.8 U U ' 8 8 U %.%.%.%.%.%.%.< %.%.: = @ ",
"* G S +.$.< X.+.$.$.$.+.%.7 B ' %.U 8 %.%.%.%.B z t r r r r r r r r r r r r t z B %.%.%.%.8 U %.' B 7 %.%.%.%.%.%.%.< %.%.: = @ ",
"z S > %.%.< %.%.%.%.%.%.%.%.%.%.%.U 8 %.%.B z r t r r r r r r r r r r r r r r r r z B %.%.8 U %.%.%.%.%.%.%.%.%.%.%.< %.%.= = @ ",
"* l @ %.%.< { %.%.%.%.%.%.%.%.%.%.' U %.t t t r r r r r r B r r r r B r r r r r r r u r %.U ' %.%.%.%.%.%.%.%.%.%...< %.%.+ + @ ",
"z * z %.%.< B %.%.%.%.%.%.%.%.%.%.%.%.%.B z r r r r r x %.r r r r r r %.x r r r r t z B %.%.%.%.%.%.%.%.%.%.%.%.%.B < %.%.+ @ @ ",
"H H H %.%.B , B ..%.%.%.%.%.%.%.%.%.%.%.%.%.B z r r x %.B w r r r r r B %.x r r z B %.%.%.%.%.%.%.%.%.%.%.%.%...B , B %.%.: : F ",
"1 S ; B %.%.B < < < B  .%.%.%.%.%.%.%.%.%.%.%.%.%.%.%.%.r t r r r r r r %.%.%.%.%.%.%.%.%.%.%.%.%.%.%.%. .' < < < B ..%.B : : < ",
"S 1 1 ; B %.%.%...B < < < < B ..%.%.%.%.%.%.%.%.%.%.%.%.x r r r r r r x %.%.%.%.%.%.%.%.%.%.%.%...B < < < < ' ..%.%.%.B : : : - ",
"S 1 : ; : z B %.%.%.%.%...B < < < B  .%.%.%.%.%.%.%.%.%.%.x r r r r x %.%.%.%.%.%.%.%.%.%.} B > , < B ..%.%.%.%.%.B z : : : < C ",
"1 A : : : : : z B %.%.%.%.%.%...B , < < B ..%.%.%.%.%.%.%.%.x t r x %.%.%.%.%.%.%.%...E : > > B ..%.%.%.%.%.B z : : : : : > < S ",
"> S 1 S > : > : : ; : z B %.%.%.%.%...B < < < B ..%.%.%.%.%.%.x x %.%.%.%.%.%.} B < < < B #.%.%.%.%.%.B z : : : : : : < : S < S ",
"> S 1 1 > A A > : : : : ; : z B %.%.%.%.%. .B < < < < B ..%.%.%.%.%.%.} B , , , < B | %.<.%.%.%.B z ; ; : : : : : < S < : > S - ",
"1 A : S > > C > 1 1 S : : : : : : = z B %.%.%.%.%...B < < < B ..} B , , < B } %.%.%.%.%.B z . @ @ @ : : : : S ; S < S < S > S < ",
"- - - - - - - - - - - - - - - - = = + + @ z B %.%.%.%.%...B < < < < B ..%.%.%.%.B z - - - = = + @ @ : = . - - - - - - - - - - - ",
"@ @ @ @ @ @ @ @ @ @ @ @ @ @ @ @ @ @ @ + + + + + @ z B %.%.%.%.%.%.%.%.%.%.B z + O O + + @ + + + @ @ @ @ @ @ @ @ @ O O O + + @ @ ",
"* z % z & % * l h h l l z * * * * @ @ @ @ @ @ @ + + + + + z B %.%.B z @ + + + + X @ @ @ @ @ @ @ @ * * l l z l l l l d * d h h k ",
"z z z z z z z z z z z z z z z z z z z l * * * @ @ + + + + + + + + + + + + + + + + X @ $ * * l l z z z z z z z z z z z z z z z z "
};
