/* XPM */
static char *_df5b393e41e44c099d305c0b17806bdGQ8UP00HrK4eOALY[] = {
/* columns rows colors chars-per-pixel */
"64 64 188 2 ",
"   c gray12",
".  c #3F0000",
"X  c #3E0100",
"o  c #201E1F",
"O  c #20201E",
"+  c #211F20",
"@  c #1F2120",
"#  c #202020",
"$  c gray13",
"%  c #202022",
"&  c #2B2B29",
"*  c gray17",
"=  c #2A2C2B",
"-  c #2C2C2A",
";  c #2D2D2B",
":  c #2B2B2D",
">  c #2D2B2C",
",  c #2B2D2C",
"<  c #2B2C2E",
"1  c #2C2C2C",
"2  c #2D2D2D",
"3  c #2E2C2D",
"4  c #2C2C2E",
"5  c #2D2D2F",
"6  c #2F2F2F",
"7  c gray19",
"8  c gray20",
"9  c #343434",
"0  c #373735",
"q  c #373737",
"w  c #363837",
"e  c #383836",
"r  c #373739",
"t  c #393738",
"y  c #373938",
"u  c #37383A",
"i  c gray22",
"p  c #393939",
"a  c #383A39",
"s  c #38383A",
"d  c #3F3F3F",
"f  c #400000",
"g  c #410000",
"h  c #400001",
"j  c #410001",
"k  c #410101",
"l  c #4A0000",
"z  c #4B0000",
"x  c #4B0100",
"c  c #4A0001",
"v  c #4C0000",
"b  c #4C0100",
"n  c #4D0101",
"m  c #4E0000",
"M  c #4C0002",
"N  c #550000",
"B  c #560000",
"V  c #570000",
"C  c #560100",
"Z  c #580000",
"A  c #590000",
"S  c #590100",
"D  c #580001",
"F  c #5A0000",
"G  c #620000",
"H  c #630000",
"J  c #630100",
"K  c #630001",
"L  c #630102",
"P  c #640000",
"I  c #650000",
"U  c #650101",
"Y  c #660000",
"T  c #640002",
"R  c #6D0000",
"E  c #6E0000",
"W  c #6F0000",
"Q  c #6F0100",
"!  c #6E0001",
"~  c #700000",
"^  c #710000",
"/  c #710100",
"(  c #700001",
")  c #710001",
"_  c #710002",
"`  c #7B0000",
"'  c #7B0100",
"]  c #7B0001",
"[  c #7C0000",
"{  c #7D0000",
"}  c #7D0100",
"|  c #7D0101",
" . c #7C0201",
".. c #7C0002",
"X. c #7D0002",
"o. c #3E403D",
"O. c #3F4140",
"+. c gray25",
"@. c #404042",
"#. c gray28",
"$. c #484846",
"%. c #494947",
"&. c #494748",
"*. c #474948",
"=. c #484848",
"-. c #494949",
";. c #48484A",
":. c #4A4C4B",
">. c #4C4C4C",
",. c #535353",
"<. c #535552",
"1. c #545452",
"2. c #555354",
"3. c #535554",
"4. c #535456",
"5. c gray33",
"6. c #555555",
"7. c #565455",
"8. c #545655",
"9. c #545456",
"0. c #555557",
"q. c gray36",
"w. c #5C5C5E",
"e. c #656366",
"r. c #636564",
"t. c #646464",
"y. c #646466",
"u. c #870000",
"i. c #870100",
"p. c #870001",
"a. c #880000",
"s. c #890000",
"d. c #880100",
"f. c #890101",
"g. c #8A0000",
"h. c #8B0101",
"j. c #880002",
"k. c #890103",
"l. c #8A0002",
"z. c #960000",
"x. c #970000",
"c. c #980000",
"v. c #990000",
"b. c #990100",
"n. c #980001",
"m. c #A30000",
"M. c #A30100",
"N. c #A30001",
"B. c #A40000",
"V. c #A50000",
"C. c #A50100",
"Z. c #A40001",
"A. c #A50001",
"S. c #A60000",
"D. c #A40200",
"F. c #A50102",
"G. c #B00000",
"H. c #B00100",
"J. c #B00002",
"K. c #B90000",
"L. c #BB0000",
"P. c #BA0100",
"I. c #BC0000",
"U. c #BD0000",
"Y. c #BD0100",
"T. c #BC0001",
"R. c #BE0000",
"E. c #C70000",
"W. c #C70100",
"Q. c #C80000",
"!. c #C80100",
"~. c #C90101",
"^. c #CA0000",
"/. c #C90200",
"(. c #D20000",
"). c #D30000",
"_. c #D40000",
"`. c #D50000",
"'. c #D50100",
"]. c #D40001",
"[. c #D60000",
"{. c #E00000",
"}. c #E10000",
"|. c #EB0000",
" X c #EC0000",
".X c #EC0100",
"XX c #ED0101",
"oX c #EE0000",
/* pixels */
"i i i i w i i i w i r i i r e i r e i r i i i t y r e i i i i i i i i i i y y t r i i i i i i i i r e i i i i q i i y t y t y y ",
"5.i 5.-.=.-.-.=.5.-.=.-.-.=.-.5.-.i -.=.-.=.=.-.&.4.5.5.5.5.5.-.=.-.$.-.&.-.&.*.5.5.5.5.5.4.5.-.-.-.-.i i i -.=.2.<.&.-.&.*.*.t ",
"i  X X_._._._._._.)._._.m.-.#.5. X X_._._.).)._._._._._._._._._.)._._._.B.*.y 2. X X X X{.{.{.{.{.{.)._._._._.Q.E.Q.Q.I.I.I.B.-.",
"-. XQ.G.G.).f.m._.f.Q.B.P * -.5. XI.i.I.f.I.i.I.[ I.b.I.b.I.[ I.[ I.Q.B.^ , &.y _.B.Q.G.Q.G.G.Q.^ Q.[ Q.G.Q.f.G.B.[ Q.b.Q.B.[ * ",
"=.).B.[ B.f.m.b.^ B.f.^ P 5 #.1._.I.f.f.m.f.^ B.B.^ z.B.B.^ b.B.^ B.z.W B > *.2._.B.B.[ P B.i.^ i.m.[ f.B.B.f.B.[ f.B.B B.^ P 5 ",
"-._.[ B.B.^ b.B.B.^ B.B g 5 -.5.).f.L.B.f.B.^ B.f.m.^ B.W f.[ B.^ b.[ W S > &.*._.W B.P f.B.K m.^ B.[ B.f.B.P B.b.[ B.[ B.^ v * ",
"-.Q.B.` f.z.` B.^ f.m.^ g 5 #.5.I.I.f.B.f.i.z.B.W i.^ m.f.W b.[ i.W B.^ . > y &.I.^ B.` m.i.P B.^ W B.B.^ m.f.B.B.[ B.S m.i.v * ",
"#.I.[ B.B.^ B.b.^ b.^ B . 5 #.-.I.Q.f.m.^ B.^ B.W m.W b.f.^ ` B.W b.[ W S : t *.L.b.B.K f.B.[ f.W f.[ B.i.B.K B.[ f.B.[ B.^ . 5 ",
"-.I.m.^ f.B ^ ` B ^ i.^ . 5 t 4.b.z.^ W v f.^ W f.^ z ^ f.W i.^ v f.^ ^ . 5 q #.I.^ W B ^ ^ v f.v ^ S i.z ^ z f.P v ^ f.W f.. , ",
"=.[ K K P g . g . g g g g , q -.[ P P S B S B S B S B B g . g g g . . . g 5 e -.f.K P P P P P P P P P S S B S S B S B S g . . 5 ",
"-.=.- 5 5 = 5 * 5 5 @ o   5 i 5.-.* 5 - 5 - o # O # @ > : @ # # o = , 5 : = -.5.e 5 5 * 5 = = 5 5 * : , @ + # # # 5 - - * 5 - - ",
"5.t i i q -.#.-.#.e q i e q -.i #.-.$.-.=.=.$.i i i 2.*.&.&.i i $.=.=.#.=.=.<.i -.5.1.,.1.q.y.y.w.5.2.*.&.O.i +.1.i 5.=.=.$.4.i ",
" X_._._.L.I.I.I.I.L.I.I.I.L.I.m.-.<.&. X X_._._._._._.Q.Q.Q.Q.Q.Q.Q.I.L.I.I.I.I.I.I.L.I.I.I.L.I.I.L.I.I.m.-.O.5. X X_._.).)._._.",
"G.f.f.G.b.` G.[ b.f.G.K G.f.m.g i -.4. X^ G.Q.[ L.K f.I.f.f.Q.b.m.f.` f.B.i.m.f.B.[ Q.P E.f.b.I.Q.b.Q.B.g i &.i  XQ.[ G.f.G.f.G.",
"f.B.f.B.[ f.f.P m.f.K f.B.B.W g 5 $.-.).G.^ B.` B.B.f.B.P B.W K f.B.[ B.` B.P m.B.i.P B.f.m.^ f.m.^ B.^ . i -.5.Q.G.` B.f.[ m.b.",
"W m.m.f.b.P B.[ i.i.b.P B.i.^ . - w =.).^ B.f.z.f.f.K f.i.^ B.f.K B.f.` P ` f.i.B.S f.` m.^ B.^ B.m.^ W g , O.-.Q.[ B.B.B.` B.` ",
"B.f.f.m.i.` [ f.[ B.b.K m.K ^ . , i -.).^ B.B.[ B.P f.m.P ^ m.P i.m.[ i.[ B.P B.f.B B.P m.^ f.^ B.W B.^ g , y *.Q.G.[ B.[ B.b.` ",
"W m.P m.^ i.[ z.P B.P f.B.B.W . 5 -.5._.G.B B.[ B.f.P f.B i.^ P B.f.[ B [ B.P f.B f.B.P i.m.^ i.B.^ B.W g # t -.G.[ B.B.S m.` f.",
"W G.P ^ v [ ^ b.^ b.W S b.W W . = =.5.G.m.^ f.S ^ b.W f.P ^ i.S ^ z.W b.P i.W f.i.S z.^ ^ i.z ^ z.W f.^ .   +.4.G.B.[ W S W b.W ",
". v v z v v v v v v v v z g . g e -.5.B.K P P P P P P K P P P P P S S B B S S S S B S S B S S S S S B g g   -.e B.P g K g g K g ",
"* , 5 @ 5 * 5 O # # 5 - 5 #   5 w =.w =.i 8 5 = 5 & * 5 9 9 i i q 5 * - # # # # + > , > # # # # 5 - 5 * - e -.5.=.> , > , > , > ",
"5.1.#.i q -.5.t 5.i =.=.q e e i -.-.1.-.-.#.+.e +.t d i +.=.-.-.,.q ,.-.+.i i r O.@.&.*.4.+.i i O.&.#.-.5.*.5.i <.O.t O.2.*.*.=.",
"5. X|._._._.)._._._.L.L.L.I.I.I.I.I.I.I.I.I.I.I.L.I.I.m.=.5.5. X X_._.).)._._.)._.).).I.I.I.I.L.I.L.I.I.I.I.I.L.I.I.L.L.I.L.B.-.",
"5.|.f.G.I.` I.[ I.` G.f.G.i.G.Q.f.G.i.G.f.I.G.K G.E.^ g r =.5. XI.^ _.B.G.f.B.G.f.G.b.G.[ P B.f.^ f.B.[ f.m.b.f.B.[ f.m.S B.g , ",
"i  XG.f.B.b.B.[ W f.m.B.f.z.f.B.i.K B.^ B.f.P f.B.W G.g * $.q._.I.b.B.P B.P f.^ z.f.P B.P f.m.P m.^ B.[ m.f.B.K B.b.[ B.[ W . , ",
"-.L.K m.m.^ f.B B.P m.W B.f.b.B.P f.m.^ f.B.f.P [ B.^ . 5 5.t._.I.[ B.[ B.P B.^ b.B.[ B.[ B.f.P B.W ^ B.b.^ b.f.B.m.[ B.S ^ . 5 ",
"-.I.G.i.B.v B.S ^ f.B.f.^ [ B.` i.K [ B.P B.f.K m.^ B g - 5.w.).^ m.W z.f.K f.z.W B.P f.P f.m.[ f.W f.[ m.f.B.K B.[ f.m.[ W g , ",
"5.I.W P B.z i.[ m.P B.B B.P B.f.P f.B.f.P B.K f.[ ` G.g 5 $.5._.Q.^ B.^ B.f.m.f.^ B.P m.S ^ ^ z m.v B.B B.z B.B.f.P z ^ f.^ . > ",
"&.E.B.P ^ W ^ B ^ z ^ ^ f.P f.W ^ f.^ W P ^ b.W b.^ W . 5 q <.Q.B.^ z.^ f.S ^ ^ ^ ^ P f.W f.v m.S ^ m.v ^ i.v B.S B.v m.W ^ g 5 ",
"-.B.z.K P P K P P P P K P P P P P z v z v v v z v v g g 5 e 4.m.P P P P P P P K P P P P P K S S B S B S B S S B S B g S [ S . 5 ",
"=.=.r 5 5 , > > 5 5 * 5 5 - - > 5 5 * 5 i y i 5 - , > , * -.=.#.5 - 5 - 5 * 5 * # # # # # 5 i i y > # #   : - : : - 5 * 5 > - 5 ",
"5.5.5.5.<.=.&.y #.e e e =.5.t.t.,.1.5.$.-.#.o.+.t y O.t e +.5.=.-.&.5.e ,.-.5.$.O.i +.e +.#.2.4.&.-.+.i +.-.&.-.1.r 5.$.#.=.<.q ",
"I.I.I.I.I.I.I.I.I.I.B.-.i 5._._._._._._.)._.I.L.I.I.I.I.I.I.I.I.I.I.I.I.I.L.I.B.-.5.5.E. X_.)._._._._.)._._.I.I.I.I.I.I.I.I.I.I.",
"m.G.B.G.b.Q.G.G.Q.m.g q $.i _.B.P m.^ B.B.P m.f.B.B.W m.f.P B.B.P B.m.^ B.[ B.g r -.5.).B.[ m.^ B.B.P B.` f.[ B.^ B.f.B.[ B.^ B.",
"B.[ f.m.b.B.[ B.f.W . 5 -.5.).K B.[ f.B.[ B.z.^ B.f.i.^ i.f.B.f.P m.^ f.B.P B.g i 5.5._.B.S B.W m.f.P B.f.B.[ i.f.z.^ b.` b.f.^ ",
"f.[ m.b.[ B.` b.m.^ g , -.w _.K B.m.` b.B.^ m.^ B.i.m.S B.z i.f.B.f.W z.m.` B.. q 5.y._.B.[ B.^ B.f.B.f.B.B.[ B.W b.f.B.b.[ B.W ",
"B.f.[ B.b.m.z.` f.W g y -.,._.b.P B.[ B.[ S z.i.f.i.^ i.B.P B.i.K f.b.^ f.B.[ g t 4.t.).[ B.B.W B.P m.B.[ ` B.[ B.i.z.b.f.` ^ i.",
"B.f.[ B.[ B.[ b.m.^ . t #.-._.P B.[ S b.B.W f.f.m.f.m.^ i.v K b.K B.z.W B.[ m.. y &.1.Q.B.[ B.m.^ B.f.f.[ B.` B.^ b.f.m.` f.m.W ",
"^ ^ f.z.^ ^ z.^ ^ W . i -.#.b.K B.B.B B.[ ^ m.^ B.K B.S f.P B.i.P b.W b.B.K [ g > *.5.Q.B.S B.^ m.B.f.B.f.m.[ m.^ z.^ b.[ B.B.W ",
". g v v v v v v z g . 5 #.-.m.K P P P P P P P K S S S B B B S S S B S B S B g . , -.-.B.P P P P P P K K K K P P P P P S S B S . ",
"5 - 5 * - - : - : , > , &.4.#.5 # # # # 5 > y t i 5 @ O # # # 5 5 - > : - 5 - - t $.-.=.5 * - : y e $.q * 5 # # # 5 : , > , > * ",
"<.=.5.i -.r r -.-.i y s q -.-.i i i -.-.=.*.-.4.5.-.#.q i i ,.-.=.=.5.i $.i -.r -.#.2.=.1.r 5.-.5.q.y.5.:.#.-.i 2.*.2.*.<.y 2.y ",
"t |._.)._._._._._.I.I.I.L.I.I.I.I.I.I.I.I.I.L.I.I.I.I.I.I.L.I.m.i 5.i  X X_._._._._.)._.).I.I.I.I.I.L.L.I.I.L.I.L.L.I.L.I.I.m.*.",
"5.).B.f.f.B.K B.B.` b.B.[ B.^ f.B.P B.[ B.f.B.P B.P B.B.[ ^ B.g i -.5. XB.B.P m.P m.S B.^ m.S B.i.S b.f.^ B.f.[ B.[ b.W f.B.. > ",
"-._.B.P B.f.K B.f.z.[ B.K f.S B.b.P B.S f.b.i.P m.[ B.[ m.^ z.g 5 $.=.).f.m.P f.P [ S f.S b.[ B.S m.P B.W f.W B.f.[ b.B.P f.. 5 ",
"#.).f.K B.P i.^ P B.P m.f.` i.m.P b.f.f.S ` B.v b.S f.K f.f.^ . 5 i -._.f.B.P K f.B.` S B.` B b.m.S m.^ ^ m.^ m.` m.^ i.P B.g * ",
"i _.B.f.B.f.P B.f.` b.B.` B.S i.B.P B.S f.B.S z.m.[ B.m.m.^ [ g * i -._.m.P B.f.P B.S B.^ b.[ [ S i.K B.` f.z.f.b.` ^ B.f.B.. 5 ",
"5._.B.K f.B.P B.P B.K B.P B.W B.P P B.B f.[ B.[ f.P b.K k.W B.. O i 5.).m.P K B.P [ B m.B B.B b.B B.K f.^ m.^ [ B.[ z.f.P W g * ",
"y Q.B.P B.P f.^ f.z.[ B.f.f.i.B.b.K f.[ S K B.v B.^ z.[ B.^ B.. # r 5.Q.^ B.K f.P B.S ` B.[ B z.^ i.P B.^ m.^ B.[ b.^ m.P m.g , ",
"5.B.P P P P P P K P P z v v v v v v z v v v v v v v v v v v v g 5 -.5.B.P P P K K P K K P B S S S S v v v z z z v v v v v g g > ",
"i =.> 5 - 5 * 5 - : - , r q i 5 # # @ + 5 - 5 + # # # 5 - +   5 - -.i *.5 * * 5 - 5 + @ # 5 q q 8 5 + 5 5 * 5 # # O 5 - , , , : ",
"5.i 5.i 5.&.1.-.$.-.$.5.t.r.5.-.4.t 0.*.,.-.d e i i o.=.5.=.=.i &.#.5.i 5.$.-.-.=.=.*.-.$.>.1.4.1.>.$.#.#.-.r 6 # # 8 w &.&.5.=.",
"_._._._.).I.I.I.I.I.I.I.L.I.I.I.I.B.=.2.-.oX X_._._._._.)._._.I.I.I.I.I.L.I.I.I.L.I.I.I.L.I.B.&.i 5. X_._._._._.I.I.L.I.I.I.I.I.",
"[ B.S B.B.P z.K B.[ Q.[ m.P B.` m.g > *.-._.B.B.B.B.P B.z B.[ B.K m.P B.b.m.P B.P B.S B.^ P g y -.5._.B.P f.B.B B.^ B.^ B.P B.^ ",
"B.[ [ B.[ B.P b.[ P B.S [ P f.K f.. > -.-._.[ B.^ B.P ^ v [ b.[ B.f.P f.b.K ` f.^ f.S m.P B.g 8 #.5._.P B.S B.^ m.W i.B.^ B.f.z ",
"B.[ S ` B.P b.K [ B.[ S B.f.P z.` g , $.+._.[ [ ^ B.P [ [ B.S m.v B.B.K B.P B.P i.S i.f.K ^ . 5 #.5._.P B.^ ^ m.m.f.^ f.^ K ^ f.",
"` b.S b.P P B.K B.[ B.S ` ^ K B.P g , *.@._.B.v W B.P B.z m.` b.P B.P f.` P B.P B.f.S ^ b.P g , =.4._.B.P B B.f.^ W B.^ B.K ^ m.",
"K B.[ B.P B.P f.B.P B.[ S i.B.[ i.g - &.+._.v B.B.P B.[ W f.B [ v B.P B.K [ [ P i.^ B f.^ P g - =.-._.P B.f.B.^ m.f.W ^ S m.^ B.",
"P B.` [ P b.z.P b.P [ S B.P B.P b.. > =.-._.v B.^ B.K [ [ f.v b.P f.z B.[ P B.f.P B.S B.S i.g * i =._.P B.S ^ S B.W B.W S P B.v ",
"[ b.S B.P K f.P [ [ B.S B.K ^ f.[ . 5 =.5.Q.B.v ^ B.P B.z i.P B.P B.^ K B.P [ m.P i.^ f.P f.. 5 i =.Q.P K S B.B B.^ m.^ m.P m.^ ",
"v v v v v v v v v v v v z v v v g g * =.-.B.g g . g . v z v v v v v v z v v z v v v v v z g . % &.<.m.. g z z z v v v v v z v v ",
"5 * * 5 * 5 5 = 5 * 5 , 5 = 5 - * 5 , -.,.*.y 9 9 , = 5 5 : 5 * 5 - 5 , 5 5 5 + # # # # 5 + @ % w -.-., - 5 : , 5 # # # + # : 5 ",
"i 5.e 5.i t i -.#.$.-.&.5.5.e $.-.#.-.5.,.5.5.5.=.-.-.5.=.=.-.5.#.$.y -.-.$.d e i +.i i d $.+.r +.5.=.=.y 5.=.-.=.$.+.i +.$.-.#.",
"5.5.5.5.,.5.5.5.5.5.5.5.2.5.5.1.5.5.,.5.5.5.5.5.5.5.5.5.5.5.5.5.5.5.5.5.5.5.1.4.2.5.5.5.5.1.5.5.5.5.5.5.2.2.<.5.5.1.5.5.5.4.5.,."
};
