/* XPM */
static char *eb4eee62eeaf4ab3fdee1063a17390e1YMuvqvlW3Iw1wiuQ[] = {
/* columns rows colors chars-per-pixel */
"64 64 223 2 ",
"   c gray12",
".  c #1F211E",
"X  c #3F3F00",
"o  c #20201E",
"O  c #21201E",
"+  c #21211F",
"@  c #1F1F21",
"#  c #211F20",
"$  c #1F2120",
"%  c #1F2022",
"&  c #202020",
"*  c gray13",
"=  c #222021",
"-  c #202022",
";  c #212123",
":  c gray17",
">  c #2C2C2A",
",  c #2B2B2D",
"<  c #2D2B2C",
"1  c #2B2D2C",
"2  c #2C2C2C",
"3  c #2D2D2D",
"4  c #2C2C2E",
"5  c #373737",
"6  c #383637",
"7  c #363837",
"8  c #383836",
"9  c #393836",
"0  c #393937",
"q  c #373739",
"w  c #393738",
"e  c #383639",
"r  c #373938",
"t  c gray22",
"y  c #393939",
"u  c #38383A",
"i  c #3F4100",
"p  c #404000",
"a  c #414000",
"s  c #404100",
"d  c #414101",
"f  c #404002",
"g  c #575500",
"h  c #5A5302",
"j  c #595400",
"k  c #595500",
"l  c #5A5400",
"z  c #5A5501",
"x  c #595402",
"c  c #6F6B00",
"v  c #6E6C00",
"b  c #6F6D00",
"n  c #726B00",
"m  c #706C00",
"M  c #706C01",
"N  c #716D01",
"B  c #726C00",
"V  c #716D02",
"C  c gray28",
"Z  c #474946",
"A  c #464847",
"S  c #484846",
"D  c #474749",
"F  c #494748",
"G  c #474948",
"H  c #484848",
"J  c #494949",
"K  c #48484A",
"L  c #535353",
"P  c #545253",
"I  c #535552",
"U  c #525453",
"Y  c #545452",
"T  c #555553",
"R  c #555354",
"E  c #555356",
"W  c #535554",
"Q  c gray33",
"!  c #555555",
"~  c #545655",
"^  c #545456",
"/  c #636361",
"(  c gray39",
")  c #646462",
"_  c #656462",
"`  c #656364",
"'  c #636564",
"]  c #646464",
"[  c #656565",
"{  c #666465",
"}  c #646466",
"|  c #6F6F6F",
" . c #706E6F",
".. c #70706E",
"X. c #70726F",
"o. c #716F70",
"O. c #6F7170",
"+. c gray44",
"@. c #717171",
"#. c #707072",
"$. c #7B7B7B",
"%. c #7B7D7A",
"&. c #7A7C7B",
"*. c #7C7C7A",
"=. c #7D7C7A",
"-. c #7B7B7D",
";. c #7D7B7C",
":. c #7B7D7C",
">. c #7C7C7C",
",. c gray49",
"<. c #7C7C7E",
"1. c #838300",
"2. c #838301",
"3. c #868300",
"4. c #868302",
"5. c #838500",
"6. c #848400",
"7. c #858500",
"8. c #858501",
"9. c #848402",
"0. c #9B9B00",
"q. c #9D9A00",
"w. c #9E9B00",
"e. c #9B9C00",
"r. c #9C9C00",
"t. c #9D9D00",
"y. c #9D9D01",
"u. c #B3AB00",
"i. c #B6AB01",
"p. c #B3AD01",
"a. c #B4AC00",
"s. c #B4AC01",
"d. c #B5AD02",
"f. c #B4AC03",
"g. c #B4AE02",
"h. c #CBC300",
"j. c #CDC300",
"k. c #CDC301",
"l. c #CCC302",
"z. c #CBC500",
"x. c #CBC501",
"c. c #CCC400",
"v. c #CCC401",
"b. c #CDC502",
"n. c #CDC403",
"m. c #E5D600",
"M. c #E4D700",
"N. c #E6D700",
"B. c #E5D702",
"V. c #E3D800",
"C. c #E5D800",
"Z. c #E6D900",
"A. c #E6D901",
"S. c #FBF41F",
"D. c #FBF420",
"F. c #FCF521",
"G. c #8B8B8B",
"H. c #8C8A8B",
"J. c #8A8C8B",
"K. c #8C8C8A",
"L. c #8D8C8A",
"P. c #8D8D8B",
"I. c #8D8B8C",
"U. c #8B8D8C",
"Y. c gray55",
"T. c #8D8D8D",
"R. c #8E8C8D",
"E. c #8C8C8E",
"W. c #8D8D8F",
"Q. c #979797",
"!. c #989896",
"~. c #999997",
"^. c #999798",
"/. c #979998",
"(. c #97989A",
"). c #989898",
"_. c gray60",
"`. c #989A99",
"'. c #98989A",
"]. c #A7A7A7",
"[. c #A8A6A7",
"{. c #A8A8A6",
"}. c #A9A9A7",
"|. c #A9A7A8",
" X c #A7A9A8",
".X c gray66",
"XX c #A9A9A9",
"oX c #A8A8AA",
"OX c #B4B4B2",
"+X c #B5B5B3",
"@X c #B5B3B4",
"#X c #B3B5B4",
"$X c #B4B4B4",
"%X c #B5B5B7",
"&X c #BFBFBD",
"*X c gray75",
"=X c #BFC1BE",
"-X c #C0C0BE",
";X c #C1BFC0",
":X c #BFC1C0",
">X c #C0C0C0",
",X c #C1C1C1",
"<X c #C0C0C2",
"1X c gray81",
"2X c #CFCFD1",
"3X c #D0D0D0",
"4X c gray82",
"5X c #D0D0D2",
"6X c gray86",
"7X c #DCDCDA",
"8X c #DDDDDB",
"9X c #DDDBDC",
"0X c #DBDDDC",
"qX c gainsboro",
"wX c #DDDDDD",
"eX c #DEDCDD",
"rX c #DCDCDE",
"tX c #EBEBE9",
"yX c #ECECEA",
"uX c #EDEBEC",
"iX c #ECECEC",
"pX c gray93",
"aX c #ECECEE",
/* pixels */
"2 : 2 1 : > > : > 2 2 2 2 2 2 2 2 2 2 2 2 4 2 2 > 2 2 2 2 2 > 2 2 2 2 2 2 2 2 2 1 < 1 < 1 < 2 2 2 > 2 2 2 : 2 2 < 2 : 2 1 2 1 2 ",
"! ! L ! ^ R ! ^ ^ ! H qXb.x.h.b.h.6XqXqXqXqX7Xs.s.s.qX& t K..XqXqXqXqXqXb.h.h.@.I.U.R $ F Z H H H H H H H H ! L ! Y ! L ! L L ! ",
"L ! R L ^ L ^ ! L Y H qX3Xi.s.s.i./. Xk.b.3X<X<Xk.b.Y.& t Y.<XOXH.b.;.h.0.r.r.m R W w $ r O.r.r.r.r.>.>.>...] H C H H Z H H H H ",
"Y.Y.Y.Y.Y.Y.Y.Y.o Y H qX3Xi.i.s.c /.k.b.0.<X<X-X9.f.] & 7 .X7X.XY.>.b.&.m 9.c ! :.R r # r q.k.M.r.m Y.$X<Xh.b.h.] ] k.b.Y.Y.Y.U.",
"3X$Xs.#XOX.XY.Y.& P H qX3Xr.0.9.m ).b.r..X.X).K.Y.r.L & t Y.<XJ.Y.Y..X.X] 9.n Y O.! w $ r e.Z.p.m ] $.$XqXb.Z.Z.H ] h.b.9.>.3X3X",
".X.Xs.u.! ..$.+.& L H qX<Xr.9.m @.>.).[.).r.Y.@.K.9.! & 8 S ].b.0..XY.Y.>.j ^ @.! ! r # t q.M.b ] W.@XM.k.$.r.r.H ] r.9.m H U.).",
"$X).m ! Y.G.U.+.& H G qX3Xe.m m >..X).!.).r.Y.!.@.Y.^   t H >.r.9.s.Y..X|.@.] +.t t t & t 9.q.m ] >.b.x.b.>.m r.H O.' F F ] s.>.",
"OX$X>.Y..XY.+.W # t C qX3XY.>.>.)..X).3X>.4.)..XI.Y.L & t H @.G.{.Y..XY.Y.Y.{.| t t t 2 8 9.n ' Y.Y.;.b.$.*.m m C @.-.Y.@.*.9.] ",
")..X.X| +.Y.H H & 2 C qX<X.X).>.).b.)./.Y.).Y.Y.{.K.! & & H ^ @.@.! Y 8 t t t u t t & t r ;.' I.>..X.X>.I..X>.H @.G.).Y.Y..X-./ ",
"Y.Y.Y.Y.+.! H H & 2 H qXyX.X>.).>.k.i.| Y.K.Y..XG.Y.^ > $ S D t t t t t t t t u & & t t 5 :.@X#XY.r.>.).-.;.)./ @.).Y.).Y.Y..XY.",
"@.@.@.| ^ C t t & 2 H qXqXY.>.).).b.e.o..XY.|.Y..XY.! , & t H t 2 2 & & & & & 2 2 t t t r ;.$X*.r.H Y..XZ.-.G.@.G.@.)./ @.Y.] ] ",
"! L C H H & & & & : H .XqX.X).>.k.s.r.@.).Y.I.>.Y.@.] t & 8 F D H D @..X.X.X.XqXqXm t t w @.$XK.>.] ] >.r.8 ^ ! ] H H H C H H D ",
"  & & & & 2 2 > 2 t ! G.qX1XY.>.Y.r.@.K.Y..X>.Y.0.Y.Y t & t H @..XF.S.0XqXqX3X3XqXb.m w t ! Y.@.] ] ! F j 5 t t t 8 t 2 : 2 2 2 ",
"2 2 2 2 2 2 2 2 2 5 L @..X3XY..XY.Y.I.|.Y.Y.).Y./ ] ! w & 2 t .XD.k.0.Y.Y..XY..Xq.@.j @ t 6 t t t t t 8 t t r 2 2 & & & & & & & ",
"t t t t t t t 5 t t ! C Y.3X.XY..X/.@.Q.Y.;.Y..X1.L ^ 5 & 2 H .Xb.9.*..XY.M.M.Y.r.! n 5 t > > 2 , < 2 2 2 2 2 t t t t t t t t t ",
"! H t t t t t t 5 t ! S @.<XY..XQ.b.0.| .XY..XY.m ! @.H & 2 H |.M.9.*.Y.b.M.>.Y.9.! j r H H ! P ! ! & H H H H H H D H H H H H H ",
"/.Q.).).).).).).)., o ! D <X-X9.K.r.1..Xo.Y.Y.Y.+.] ^ ! # & H Z.Z.>.$.].Z.M.@.Y.b R t t S Z.s.s.] Y H L &.^.).^./.^.).).).^./.^.",
"1Xb.s.7XqXb.0.@.@.5 & ! H Y.<Xc ] ).] Y.@.O..XY.@.Y.| H & & H M.-.G.:.Y.q.b ` {.Y.! t t t s.s.9.] , H >.:Xk.k.b.qXs..X.Xb.x.k.0X",
"b.s.9.s.s.r.m ! O.t & ! H @.).] ] Y.Y.o.Y.! Y.+.! | L H & & H >.Y.-.Y.Z.' ] ' P ^ P t & r r.9.U ] & H ).k.x.x.-.V.r.>..Xb.e.5.o.",
"u.9.{.s.r.9.c L o.t & G ! G ).)...K./ @.| ..| ^ | ! H 2 & & 2 .XY.o.Y.| ! t t t t 8 8 & ] r.9.@.! & H ).k.k.>.).r.r.>.).h.e.1.@.",
"9..XI.s.0.n c ! ^ 5 o H ! H ] ! ! r t t w 8 t 2 & & & & & & 2 Y.@.t t t & & & & & & & & } H.9.K.Y & H )..X>.Y.).r.>.>..Xk.r.9.).",
"{.Y..Xp.m ! ! G.! t & H ! H 2 2 , <   @ # @ &   & & &   & & 2 q L t & & & & 2 2 , 2 2 2 U..XK.].! & H U..X)..X)..X>..X>..Xr.c @.",
"I..X;.>.^ +.Y.+.! w & t ^ U S t   o ; $ & & $ & H H G Z H H G Y.Y.).r.r.0.r.r.>.! 2 t } <XqX.X*X] & H Y.Y..XZ.).Y..X^..X X>.;.^.",
"G.b.r.>.G.Y.G.] H t & t G.b.b.s.r.Y.$X%X$X} t C ] 0.b.b.b.s.3XtXaXaXh.b.k.b.s.r.9.& t $.qX<XqX.X+.@ H >.)..X).Y..X).Z.).>..X)..X",
"K.r.9.{.Y.Y.Y.] H t & t b.i.s.r.$.*.*.>.>.t ! G q.b.u.../.].{./.{.).r.>.r.9.q.9.m & t Y.qX.X.X<XZ.@ H Z..X)..X).Z.M.>..X/.^..X).",
").9.Y.Y.G.G.@.L t t & t s.r.9.' } ` / ] ] & ! F /.aX/.).q./.b..X).).>..X9.:.r.m j & t Y.M.Y.Y..X0.& H r.j @.] Z.s.9.m j @.O.W @.",
"] ] ] ] ] ! H t t t & t s.9.] ] !.9.e.m ] & F H ).yXM..X/.k.9.!.b.b.].).9..X9.' j & t Y.s.o.Y..Xm & H j t t H j j j j G Z R R R ",
"! H H t t t @ . & & 2 t s.9.] ).).>.9.n ] o S H Q.aXb..Xb.r.*.).h.9.!..X!.).*.` i & t U.@.Y..XqXj & H 2 2 & & & & & $ & # r w G ",
"& & o & & & 2 2 2 H H H aX] !..X9.K.9.m ] & t H ).tXu.^.k.m >..X)..X).>.s.9.*.] p $ w Z.aX{.qX.X! & H t t t t 2 2 2 & & $ $ # & ",
"F } / @.Y.).Y.Y.Y.Y.H & aX).)..X9.Y.' >.] d & H !.aXp..Xr.m >.).>.)..X).s.9.$.! d & r i.yX<X<X.X! @ H t t t t t t t t 5 w 5 t t ",
"] Y.$Xs.s.Y.|..X.XoX] & aX.X3XY.m .XY.*.] d & H ).aX[.b.e.b ;.)..X.X).{.i.6.Y.P X & m r.qX.X.Xs.! & H m r.r.r.s.s.9.5.C G F S ! ",
"] $Xs.s.9.] .X|..X.XH # yX.X)..X*.K.>.Y.] d & H >.).b.e.m @.:.{.).).>.).s.6.} ! d $ t r.qXqXs.0.^ o C @.r.m r.r.r.s.i.i.6./.r ! ",
"] s.r.1.] Y..Xs.i...] & aX3X.X).|.6.Y..X] X & t Y ).r.m >.$.Y.)..X>.).>.s.9.@.S t & t r.qX|.s.m ! & H ).@.o.r.r.4.9.m m m >.t ! ",
"] s.r.@.@..X@.s.9.@.] & yX).Y.!..XY.Y.>.] d & 2 ! .XuX.Xb.b.r.K.>.>.>.>.s.9.] H 2 & m I.1X<Xs.j Y & H qX.X{.r.m @...j ] @.] t H ",
"' o.Y..XK.@.Y.s.m @.Y & qX.X.X{.)..X.X>.] d & 2 L Y.aX-Xh.1.m >.).).I..Xr.9.] H & & r.Y.1X.X9.m d & H 3X.XY.r.m K.>.).] ).] t H ",
"] .X.XY..X{.i.0.m  .! & qX<X>.).b.s.*.H.} p & @ H @.3X-X9.m ] >.K..X).s.q.] ] t & & H Y.3XY.m j d & S <X.X.Xr.m >.K.).)..XY t S ",
"] 9X)..XY.Y.5.m m ..! @ <XqXY.).s.9.K..X` X i $ H ! OXqXm ] >.G..XH.9.} ] }  .t & r H -..X>.c d j t H .X.XY.q.9. .Q.>.@.).! r t ",
"' 7X.X.XK.!.m m @.@.! o $XqX>..XY.Y.Y.Y.} p X # t ! Y.<XQ.$.>.@.O.@.] ' @.@.! t # w H ! t t j j t 8 S @.! H W W ! ^ ! W Y ! t t ",
"/ qX$XY.s.9.G.@.Y.).^   ).qX.X-..X.X>.Y.' R d & t W H Y.Y.@.@.W ! Z # i G R Z # o t D ! H D t t t H H & & & & & o   & . & & & r ",
"] qX@X.XY.!.Y.s.0.@.Y o >.9X).).{.Y.] Y.:.R i & 2 H H t 1 2 : &   < , 1 w r w r t r H S H Z H H H H H H H Z t t t t t t t t t t ",
"] 7Xi.p.Q.Y.s.r.9.@.^ o ! iX.X.XY.Y.Y.{.>.Y l & 2 H H H w t w t r H H C ! P ' ` ` @.+.-.-.*.>.>.9.1.9.9.>.>.>.*.$.>.*.$.>.>.t ! ",
"] s.s.9.|.).r.m n ] L   D iX).Y.r.>.Y.=.,.! j & 2 t ] r.r.q.r.0.0.r.9.>.>.Y.).).{.]..X{..X$X$Xb.b.b.p.9.<X*XZ.s.*Xb.s.9.<X>.6 ! ",
"] s.6.>.^./.Y.m m ] @ < S yX.XY.9.' [.Y.] R j & & t c b.b.b.h.b.h.b.b.r..X<X.X;X).&X.X<X=X;Xb.s.1.1.9.OX$XZ.u.<X<Xs.s.s.6.' 2 H ",
"] s.6.;. XY.Y.Y.Y.Y & > H aXY..X' ' H.Y.] ! j & & t m n.i.s.s.s.s.s.s.9..X<X.X.X<Xb.r.!..X/.i.9..X).h.b.s.:.G.<Xs.r.s.5.;.! > H ",
"' i.1.Y.I..XY..XY.! @ q H qX.X.X.X.XY..X] ! d o & t 2 s.s.r.r.r.r.r.r.9.n H.<X{.{.r.r.{..X).<X!..Xb.u.s.-.K.)..X+.+.p.o.o.Y 2 t ",
"D 5.;.U. XI.|.Y.] Y o t H 3XY.Y..XY.Y.H.] ! t & & t 2 Y.Y.K.r.9.r.9.9.m m ..{.<X.XY.>.).<X).)..Xb.$.>.*.)..X|.).Y.U.i.O. .U 2 t ",
"H Y.I.U.I.:.' R ^   2 t S $X.XY.Y..XY.-.' ^ 8 & # w 2 <XqX<Xr.m m m m @.@.Y..X<XU.$XY.).).b.h.!.K.>.| Y.Y.Z.u.$X.XG.p.o.O.R 2 t ",
"H >.:.@.] R W L ! & 2 t H ).)..XY.K.Y.@./ ! t & & t 2 $XqX3X6.o.@.| @.&.!.U.r..X$X{.Y.$Xb..XI.J..XY.G.).$Xs.9..X)./.O.O.o.! o t ",
"H 5   ! ! W R ! L o 5 H F >.] ] ] ] ] ] ! W t & $ w 1 |.9X3XO.:.K.U.i.s.1.OXY.Y.$X)..X$X[.Y.s..Xs.{.^.$Xs.1.)..X.X).s.s.@.!   w ",
"! ^ ! : : & & 2 & 2 t H t t t t t t t t t t t & # 1 < U.3X#XI.@X).$Xs.s.c Y.$XY.OX).Y.I.M.s.m ^..X<X)..X).)..X).Y.Y.$X>.@.R & t ",
"H H C C 5 t < , > 2 t D t t & & & & & & & & & & &   1 I./.o.O.o.@.| 9.c m Y..X@.>.Y.$XZ.s.m .XY..X).Y.Y.$X>.Y.Y.b.!.Y.!.| ^ & t ",
"G >.].b.b.b.r.Y.] G S ! t t 2 2 2 2 > 2 2 2 2 2 2 , w W F r < 1 2 2 2 2 L @.@.>.Y.i.$Xm m >.>.| ] >.Y.K.Y.>.-.$X-.] >.>.] ! & t ",
"H .Xh.Z.h.b.b.k.s.q..XU.@.] ! D 8 t t t t 6 t 7 t t D R G Z w r t t t t 1 H ! Y ! ! P ! ! ! ^ ! ! Y ! ^ ^ L ! ^ ! R ! ! ! & 2 t ",
"H .Xb.Z.u.Y.Y.K.!..X<Xs.M.Z.h.b.b.s.s.s.s.s.9...:.@.] ' W R G F H H F t t 2 , < 2 2 & & 2 2 : 2 2 2 $ & & $ $ & @ & o &   2 t H ",
"H .X<X).s.).<X<X$X<XOX=X.XK.Y.r.r.r.r.r.r.r.r.9.I.U.;X|.|.|. X XY.H Y H 8 t w t q r t t 8 2 1 2 2 2 2 2 < 2 < 2 2 2 2 2 t t S H ",
"H .X<X-X).&X$X.X.X!.<X.X$X<X$X.XY.Y.Y.Y.K.9.5.9.U.^.&X0XM.Z.I.=X>.t C ! H H D t 8 t t t t t t t t t t t t t t t t t t t H H D ! ",
"H .XOX1X<X$X*XZ.s.9.OX$X3X.X3X<X<Xb.0.).H.U.Y.Y.J.OX.XY.M.5.E.;.] & t ! Z 9.s.s.i.' F H H ^ Y ! m s.r.9.b n j H H F H H ! ! R ^ ",
"H {.<X<X.XK.>.i.9.j <X[.<X3X.X{.|.3X>X>X{.<X.X3X.X>..X3X|.I.U.' ! & t H D i.9.1.9.] 7X7X$X! L q.k.h.b.e.-.b..X.X2Xb.$X).>.H H ^ ",
"H .XY.@.] ] ] 6.j @.;.@.' @.>.@.' } ' o.>.Y..XY.>.] } } ] ] ' R ! t . t H ] 9.9.m ] OX@X$X] ! Y.>.>.;.:.:.|..XY.b.r.@..X0XQ.  ! ",
"H Y.] H t t t t t t t t 6 t t 7 w r w r t t t t t t w t t t w r q t $ 2 H OX9.m ] ).] ).G.] G Y.Y..XG. Xk.x..X.X0.9.| Y..X! & L ",
"S t & & & & & o & # & $ o $ # $ $ # $ # o & & & & & & & o $ $ @ & # & 2 H t d h ! / ] ' ] ] H ] ] )..Xb.h.r.>..X9.+.@.U.G.! @ ! ",
"! F t 8 t 2 2 < 2 2 2 2 1 2 < 1 < 1 < 1 2 2 2 2 2 2 2 2 2 2 1 < 2 2 2 2 t H X i t & & & & & t H ! L c h ! ! ! c j ! L ! ! Y & L ",
"L L ! L H H G H H H H H w r r r t w t t t t t t t t t t t t t w t r t t 5 H H H H t t w t t t H H &   & & & &   & & ; & & & & ! ",
"t t t t r t q t t t r t 8 w r w t t t w 8 t t t t t t 8 t t t t t t t t t r r t 5 t t t t t 6 t t 8 t t t t w t t t t t r t t 5 "
};
