/* XPM */
static char *_d6ff06b2ba548e2fb36ae5a44e5e2b0vKqNnsIpTQI3D4Df[] = {
/* columns rows colors chars-per-pixel */
"64 64 175 2 ",
"   c #372B13",
".  c #372D14",
"X  c #382C12",
"o  c #382C14",
"O  c #392D15",
"+  c #3F2F15",
"@  c #3F2F16",
"#  c #3F2F18",
"$  c #3E3016",
"%  c #3F3116",
"&  c #3F3117",
"*  c #3D003E",
"=  c #3F003E",
"-  c #3E003F",
";  c #373737",
":  c #383637",
">  c gray22",
",  c #412F17",
"<  c #403016",
"1  c #403017",
"2  c #413117",
"3  c #473715",
"4  c #473716",
"5  c #493616",
"6  c #4A3717",
"7  c #473916",
"8  c #473817",
"9  c #483816",
"0  c #483817",
"q  c #493917",
"w  c #413118",
"e  c #403019",
"r  c #403218",
"t  c #473618",
"y  c #483719",
"u  c #4A3719",
"i  c #483918",
"p  c #493918",
"a  c #49381A",
"s  c #543D1B",
"d  c #553D1B",
"f  c #543B1C",
"g  c #563B1D",
"h  c #553C1D",
"j  c #543D1D",
"k  c #553C1E",
"l  c #543D1E",
"z  c #563D1E",
"x  c #563D1F",
"c  c #553E1E",
"v  c #5C3F1D",
"b  c #5D3E1F",
"n  c #5C3F1F",
"m  c #40003D",
"M  c #40003F",
"N  c #41003F",
"B  c #5E3F20",
"V  c #5E3F22",
"C  c #5B411E",
"Z  c #5D401E",
"A  c #5E401E",
"S  c #5E411F",
"D  c #5C421F",
"F  c #5B4120",
"G  c #5D4020",
"H  c #5E4121",
"J  c #5D4022",
"K  c #6B4723",
"L  c #6B4923",
"P  c #6C4923",
"I  c #6E4823",
"U  c #6B4924",
"Y  c #6B4926",
"T  c #6C4824",
"R  c #6D4925",
"E  c #6E4824",
"W  c #6D4A24",
"Q  c #6C4826",
"!  c #734B27",
"~  c #744D26",
"^  c #734B28",
"/  c #764B28",
"(  c #734D28",
")  c #744C28",
"_  c #744C29",
"`  c #774C29",
"'  c #3F0040",
"]  c #410040",
"[  c #400041",
"{  c #410041",
"}  c #480147",
"|  c #460048",
" . c #470048",
".. c #470149",
"X. c #480049",
"o. c #490049",
"O. c #48004A",
"+. c #49014A",
"@. c #49014B",
"#. c #4E004E",
"$. c #4F004F",
"%. c #51004F",
"&. c #4D0050",
"*. c #4E0050",
"=. c #4F0051",
"-. c #4E0151",
";. c #4E0052",
":. c #4F0053",
">. c #4E0153",
",. c #4F0252",
"<. c #510051",
"1. c #500052",
"2. c #500152",
"3. c #550056",
"4. c #570056",
"5. c #560057",
"6. c #580056",
"7. c #580057",
"8. c #590057",
"9. c #590157",
"0. c #570058",
"q. c #560059",
"w. c #590158",
"e. c #580059",
"r. c #590059",
"t. c #59005A",
"y. c #6B006E",
"u. c #6A006F",
"i. c #6B006F",
"p. c #6B016F",
"a. c #6C006F",
"s. c #6B0170",
"d. c #6B0071",
"f. c #6B0072",
"g. c #6C0070",
"h. c #6D0070",
"j. c #6D0170",
"k. c #6D0171",
"l. c #6E0071",
"z. c #6C0072",
"x. c #6D0072",
"c. c #484848",
"v. c gray33",
"b. c gray39",
"n. c #636564",
"m. c #656565",
"M. c #646466",
"N. c #814F2C",
"B. c #80502C",
"V. c #840183",
"C. c #860083",
"Z. c #830084",
"A. c #830185",
"S. c #830086",
"D. c #830187",
"F. c #850084",
"G. c #840185",
"H. c #860085",
"J. c #850284",
"K. c #840087",
"L. c #870186",
"P. c #860087",
"I. c #840286",
"U. c #850286",
"Y. c #850188",
"T. c #9B009A",
"R. c #9A009B",
"E. c #9D009A",
"W. c #9B009C",
"Q. c #9B019D",
"!. c #9B009E",
"~. c #9D009C",
"^. c #9C019D",
"/. c #B300B4",
"(. c #B500B4",
/* pixels */
"g.g.g.] M M M - w.d.G.7.d.' M M M - M M g.g.p.a.g.a.7.M M M M - M M M - 7.g.G.G.d.7.7.] ' M M M ] M M M M - M M 7.7.w.4.7.7.7.7.",
"G Z.G.g.M M M 7.g.Z.g.g.w.4.M M M - M g.G.^.R U R n a.7.M - M M M - =.7.a.G.G.G.Y.g.G.g.M M M M M M M M - w.7.7.a.G.G.T R K T R ",
"R G G.G.G.g.M 4.g.p.7.g.g.g.7.M ' =.7.G.!.P T B G Z G 7.7.=.] ' $.$.7.=.g.G.G.G.g.G.g.d.7.] - M ] ] M M 4.w.7.g.V.G.T U T P T T ",
"G G G G.g.7.w.7.7.7.a.g.7.7.M X.>.=.4.G.!.P B G.g.g.G g.7.=.=.=.4.7.%.7.g.G.g.G.g.g.7.4.w.>.<. .=.%. .<.=.7.7.a.G.T T T T h h 7.",
"G.G 8 g.G.g.7.7.w.w.w.7.=.X.X.=.=.7.w.g.Y.G.g.7.g.L.U g.=.4.F B F Z.g.w.w.g.G.g.7.7.Z B R B G G h h 8 0 =.=.=.d.G.T K R , w.f g.",
"G.G i Y.G.g.g.7.g.g.G.G.G.G.V.g.g.7.0.7.g.G.g.G.G.g.h <.w.G T P R B G.g.w.7.g.0 0 n R T T P R G Z n 8 B 8 =.<.g.G.p.R G w g.h G.",
"g.G.F g.G.g.G.g.G.G.G.G.R a.g.G.G.g.d.w.4.g.7.G.g.g., 4.G U T h h G G.g.7.1 0 R R ) U L T B h h & h 1 w G i =.7.g.G.R n # Y.h g.",
"G.Z.G G.g.g.g.G.G ) Z.R n d.w.g.g.a.G.g.4.w.7.4.g.w.i w.U B h 4.0.h g.7.w f R ) ) ) ^ ! R y f i M f 7.w.G , i =.7.G.R G , D.f w.",
"g.G.G g.7.g.G.n ^ ) R n h g.w.7.7.7.a.d.7.g.7.4.g.g.G g.G G 7.G.d.u G.g., U ^ ) B.B.) ) U 4 ] 4 w.h g.g.h 7.0 <.<.g.Z h w g.h <.",
"7.g.G w.g.G.G.) ) P G G f g.7.7.d.w.7.w.0.w.g.g.g.g.h 7.G G g.Z.Z.@ g.1 R f i N.B.) ) U G @ 4.w 4.h G.G.h a.0 7.=.7.Z h & G.h =.",
"7.7., g.g.G.^.) R G G h 0 g.7.g.d.G G G h 0 w.7.7.g.i =.0 4.V.d.g.w <.1 h R d.N.) K P G f @ 7.7.w.Z.G.f h g.0 1 7.=.4.h 1 d.0.=.",
"7.7.w g.G.G.R.) n G i 0 8 a.7.g.B T R R R n g.7.0.w.w.=.8 d.G.7.g.1 X.1 h i g.N.R R G h n h 1 G.w.G.h h h h 0 1 d.7.=.h 1 =.w.=.",
"7.7.w a.G.E.R.p.G 0 1 g.& 4.g.7.K R n a.G R G.g.w.=. .X.& =.=.=.<. .X.w.h 8 G.R T B h w.g.h h w G.Z.f i 0 h 0 1 g.g.7.h @ =.=. .",
"7.7., p.!.Z.R T R Z 1 =.1 =.=.C R G g.d.G.G G.g.$.- M X.=.=.7.=.=.=.4.=.h 0 G.P n h 7.g.G.g.h 1 G R 0 , w G.0 1 g.G.7.=.=.=.X. .",
"4.0.4.g.G.R R G g.g.g.g.o  .=.Z P B 7.G.g.G G.g.<.X.X.=.7.7.p.G.G.g.=.=.0 8 G.L 4.h g.G.G.G.T G R g 1 g.g.g.i 1 g.G.g.4.=.=.X.} ",
"w.4.w.g.Z.R n g.G.!.^.G.o ' =.G R G 7.G.w.h g.w.X.7.0 i i w.g.g.g.g.<. .0 7.G.R G.h w.i f R T T f 1 g.G.g.7.g.i w g.g.=.X.X.X.X.",
"4.w.7.a.G.T g.G.E.G.p.g.. ] =.U Z.h 7.g.7.0 <.=.<.G U ! G G 0 7.g.4.X.X.0 7.V.R G.h u T T T L R R h 1 g.g.7.G.0 t 1 g.=.X.X.X.X.",
"4.w.7.g.g.R g.^.G.7.7.M X - <.T G.i 7.a.7.1 =.4.! ` N.` B.R n 7.w.g.X.X.1 d.Z.7.G.f U T U R f h h h 1 g.V.g.d.a.0 1 & =.X.X.$.w.",
"4.w.w.g.g.R g.!.7.a.G.7.o  .=.G.G.g.G.g.4.=.=.G.B.R B n G G R h 4.0.<. .1 a.a.7.w.f T T f f o h o h 1 a.g.7.7.G.g., =.- =.=.=.4.",
"0.7.0.7.g.a.G.p.7.G.d.7.X <.w.d.G.G.g.w.>.<.7.G.G g.(.^.G.R.n h y & 7.=.1 g.G.7.h h R f i o 7.h w.h o g.7.g.7.G.g.w =. .=.7.w.g.",
"g.g.g.7.7.g.G.7.7.g.g.G.a.7.g.Z.g.d.0.=.=.w.Z.U /./.^.G.G.h G.h h 6 4.4.& g.g.7.w.h R f o 7.g.0.g.h o p.7.g.w.g.a.0 =.<.p.g.g.g.",
"R G.G.g.7.g.g.7.g.7.7.g.G.d.w.w.w.=.=.=.g.G.R ) G.^.G.T h h , h & & @ w.i g.w.0.w.f G.h   a.g.w.w.. 0.4.g.7.=.g.7.0 7.a.G.~ ^ R ",
"R T n G.g.7.7.7.0.d.Z.7.7.M M <.4.7.g.z.G.R ( T T T R G w 4.g.@ w.1 w 4 f u 4.w.g.h G.u o w.0.4.d.a.7.g.w.=.=.=.0 h G.G.) ) R T ",
"F B R 0 g.7.7.a.G.G.V.g.7.M M G G w w.g.G.U ) g.G.R f h 4.g.G.w.1 w h G U B w.0.g.g.Z.# g.0.4.7.7.G.g.7.0.=.X.M 0 G T R ^ ^ T L ",
"G h h y g.G.g.g.G.G.G.g.<.- h G h 0 7.a.Y.T ^ d.Z.R h & 7.G.w., 1 0 0 0 f h h g.d.d.G.1 G.g.g.G.G.d.G.d.X.M =.=.G P ~ ^ G.G.G.G ",
"w.0.y & @ g.g.G.G.Y.d.w.- =.P a.7.6 7.g.G.Q ) R R h & , g.G.f i 0 1 1 h h 0 h d , G.g.g.g.G.G.g.a.7.g.] M X.4.a.P ` ~ !.G.g.g.g.",
"4.w.7.0 i g.7.g.g.g.4.4 R T T 7.a.1 w d.G.T R a.7.7.p.d.Z.G.h 0 1 0 7.7.a.h h 0 & 1 g.G.g.g.G.g.w.=.X.] M X.g.G.) ~ !.^.G.7.g.7.",
"G.G.Z.h f w.G.g.7.7.0 h h Z 7.7.w.1 =.a.G.G.T a.7.g.R P R h 1 1 0 h h G.^.h g.h y w @ a.w.7.a.7.=.<.X.X.X.7.G.^ R ! ~ ^ ! R 7.7.",
"w.d.g.Z G 4.g.7.=.$.0 g.g.G g.g.G.g.=.0.g.G.P G.^.E.^.^.R.h 1 a.a.0 h G.G.h g.d h 0 1 7.=.=.w.=.G G G w.7.a.V.T ) G G G ( ) P g.",
"7.a.G.R G G.7.<.=.=.=.7.g.0 G.G.d.w. .=.4.G.G.!.!.!.G.G.G.h 1 7.R.G.w 4.a.h g.h h 0 1 7.=.=.=.G G Z 7.0.a.G.E.U G G./.(.G R R G.",
"g.G.g.G G g.7.g.7.7.7.g.g., 0 0 6 1 X. .7.G.G.R.R.G.G.g.G h 1 a.V.G.1 7.7.h 7.d h 0 w g.0.i =.G G G.G.G.G.G.!.U G./.G.G.!.R.T B ",
"g.G.g.h h L.g.G.g.w.g.G.^.R.G.G.a.d 1 1 a.G.!.V.G R T f 1 h g.^.g.g.1 7.g.a.d.h h 0 1 d.7.=.<.G G.G.G.g.p.G.!.T G./.p.a.R.!.G G ",
"7.G.a.6 8 G.7.g.7.7.G././.^.G G G G.i <.Y.G.G.G R Z h 8 h a.!.G.g.G.7.g.G.G.G.f h 0 1 g.7.X.<.8 a.G.G.g.7.G.G.U G.!.g.7.G.G.f h ",
"7.g.Z.f h g.a.g.7.g.R./.!.G G G Z G g.w.G.Z.G.U Z 1 X.y h 0 E.G.7.g.g.p.G.G.L.h h 8 w d.7.X.=.8 g.g.g.7.g.G.G.R V.!.g.w.g.i 6 6 ",
"7.g.G.R G g.G.G.7.G.!.!.Z Z 0 0 d.0 G.7.V.G.g.R y =.7.4.0 i G.a.X.7.g.G.G.g.7.h @ y , g.w.} =.u 0.w.g.7.4.d.G.G a.G.g.=.d.8 6 8 ",
"G.7.G.F 0 g.Z.d.7.G.G.E.d.G 0 u G.0 g.7.G.G.4.t X.4.g.4.y , d.w.X.7.g.G.G.g.7.h , w.g.7.=.=.=.i =.7.7.=.0.w.g.G g.G.g.w.$.$.h h ",
"7.7.G.0 i g.g.w.w.g.G.G.g.0 0 0 a.i 4.7.g.G.g.y X.g.g.w.1 1 <.X.7.7.7.a.G.7.7.d @ w.d.7.=.7.7.0 =.=.=.=.<.=.4.h 7.g.g.g.4.w.G B ",
"7.4.g.0 g.7.w.=.<.d.G.G.G.0 0 i 7.u X.=.7.g.g.G M 7.w.X.& 1  .X.a.7.7.G.7.7.p.a.w g.G.a.g.g.g.0 =.=.<.7.7.=.<.h M 7.g.p.g.g.T T ",
"7.7.G.g.7.=.=.=.=.7.g.g.G.g.0 7.=.y X.X.=.7.7.0 - a.0.X.1 &  .w.7.X.7.7.g.g.7.a.1 7.a.g.G.G.G.0 =.4.g.a.g.g.w.h =.' =.7.0.=.T T ",
"7.w.g.w.7.7.=.=.=.$.4.g.a.7.0 7.=.=.<.<.} =.=.1 X.7.7.G.g.& ] X.} 7.7.p.G.G.7.g.7.w 7.g.G.G.g.8 7.g.G.G.G.G.g.7.w.X.- - ' ] G B ",
"7.7.w.a.g.a.g.7.g.w.<.w.d.Z.G.G.Z.d.=.w.=.=.7.1 X.X.X.g.w.o ' X.X.w.d.G.G.g.7.7.7.1 7.G.g.7.7.u y G G Z.G.G.G.g.d.4.X.X.M M h 0 ",
"7.7.a.G.R T G.g.G.a.4.g.G.Z.G.L.G.I.Z.0.d.7.w.X X.X.X.X.X.o ]  .w.w.g.G.g.7.7.g.7.%.7.=.7.G.i G G R U G G G.g.g.G.g.w. . .- 0 0 ",
"<.w.g.R G G h g.d.7.a.g.G.V.T T h l p.d.G.g.=.o =.X.X. .X.w - w.g.g.7.7.=.=.=.0.=.X.=.7.7.g.Z.B R Z d 4.h g.G.g.G.D.g.w.X. .1 1 ",
"=.4.G.B g.g.h 7.w.g.Z.Z.G.R T T C l 4.4.g.7.X.1 =.=.=.<.=.i <.4.7.7.7.g.0.4.=.<. .} <.7.a.G.!.R R h 6 M 0 g.G.G.G.g.G.g.w.<.1 o ",
"=.0.Z.h g.G.h G.g.G.G.R T L F G h 0 7.7.7.=.- 0 w.f f h d n G.G.7.7.7.g.g.a.7.7.=.=.=.7.g.G.^.f G.0 w.M 7.7.g.G.g.7.g.7.d.7.X ] ",
"=.w.g.h g.w.h g.g.G.V.G G.R 7.0.h 1 7.g.7.=.- 6 f P R B Z P !.R.G.7.7.a.G.G.g.g.0.w.7.g.G.R R.h G.0 M M 7.g.G.G.g.7.7.g.V.a.o - ",
"=.0.0.y g.G.Z.g.G.G.g.h 7.G.=.4.4.& a.G.p.=.X.h P B.` P G R G./.R.R 6 d.G.G.g.G.g.w.d.G.R R Z.0 g.7.M 7.7.0 n ^.G.g.a.g.G.g.X M ",
"X.=.w.i g.G.G.g.G.G.g.4.G.7.=.g.G.!.1 G.g.=.<.Z N.) ) T K T a.!.G.Z L 4 G.g.G.g.g.w.p.T L U G.u g.7.7.0 0 n R ~ G.g.G.g.g.g.w.7.",
"=.X.=.1 p.a.g.7.g.G.g.w.7.<.d.a.^.g.w a.7.7.w.T ^ R R B R T U G.!.Z.G Z g.G.g.G.g.g.T T U U T R 4.0 0 n G U ) B d.d.G.g.g.V.g., ",
"=. .=.1 $.7.7.7.7.g.0.w.7.g.4.g.g.1 d.G.d.7.T T G h U h n R R T G.^.G.Z 0 g.g.d.g.G.T L B G B G R G.G.~ ) ) B i 0.w.g.g.g.G.a.1 ",
"X.M X.o X.<.=.=.7.7.g.g.=.w.=.X.] 1 7.a.7.7.G.R h G B y h G G G g.G.G.G 0 =.7.4.g.R R Z G X.1.=.w.g.g.G 6 7.G 0 7.g.G.V.d.G.g.1 ",
"M M ] o X.M X.X.<.=.w.7.7.g.g.X. .1 =.7.0 R R R R G 8 G h h 0 0 Z R G.G 0  .=.7.w.R G d.h <.w.w.g.G.G.G i g.G 0 g.G.G.g.7.a.7.7.",
"X.M ' - -  .%.=.w.4.w.7.7.7.7.<.=.1 o 0 T B f i G 8 G G 4 i y 8 y G G G G i X.=.4.h G.g.6 7.0 G G i @ G G.G.a.0 Z.V.B G i 7.7.1 ",
"=.- ' $  .=.7.7.d.d.Z.Z.G.G.G.g.7.& 0 R f f w X 0 0 Z 0 i X.w.0.p.g.h h G G 0 1 0.8 g.G.i g.G h h 0 w G G.g.a.i d.l B G G 0 7.1 ",
"X.]  .X.=.w.d.G.V.G.T T T R R G.d.7.t F f & X.o 1 X.0 0 w 7.G.g.g.7.6 0 0 0 h 0 X.# 7.g.0 G.g.0 X.0 , Z g.4.w.@ Z.d.g.h h 8 <.=.",
"X.X.X.X.=.g.G.!.!.B R h f h f R G.4.0 V &  .X.o 1 X.0 0 1 g.G.G.G.G.w 1 o X h 8 $.w  .4.1 G.g.0 X.1 , 7.w.p.4.w g.4.g.8 0 8 =.=.",
"X.X.X. .7.g.G.R.R.P w.g.g.g.h h g.7.0 Z 1 X. .X.w X. .w.& 4.g.G.G.G.o w .  .i 1 7.w.=.X.w d.g.1 X.0 0 7.w.G.7.1 w.4.7.0 0 i =.=.",
"=.X. .=.7.a.G.!.7.h g.G.g.G.g.h g.w.X G.G.7.w.G.@ w.G.4.w w.g.G.g.g.o o  .=., o =.7.=. .w =.=.& =.h h , 7.7.7.1 w.g.7.7.Z h h 7.",
"=.X.X.<.7.g.Z.f h 1 h h G.g.Y.0 g.g.X 7.G.G.7.7.w 0.w.4.# g.4.g.w.X.X.o =.a.1 o X.d.X.=.w 7.=.=.7.G a.G 1 7.7.& d.7.7.n ` R R f ",
"=.X. .$.d R R P g.G.p.g.g.g.g.0 g.G.o 7.4.4.7.7.@ w @ w @ g.d.4.0.w. .o d.7.1    .=.=.7.& g.g.w.G.f G.d.1 1 0., 7.7.Z B.! G F G.",
"w =.=.g.T T n B R g.g.G.G.1 @ 1 w & , 7.7.G.7.1 i i 0 0 4 t & @ 1 , w X 1 7.w   X.d.4.g.G.G.Z.d.7.@ & , w , w & 1 1 ! ` Z g.w w ",
"@ & 1 G.U =.g.G.f G.7.g.w 0 8 0 8 6 8 0 0 1 1 1 B Z.Z G n K l l h 0 8 8 1 1 w X g.Z.d.a.G.G.Y.i u 8 h h f f B G G R B.G i G.d., ",
"& 1 , 1 B g.Z.w.0 1 1 1 i G G U R n G Z 6 4 8 0 i Z R ! ` ` T P G G G G B h h 8 6 8 i , , @ & 6 6 i h G P T T R R P Z 6 & 1 1 & ",
"b.c.> 1 w @ w , 1 1 1 1 1 & 1 1 w , > c.M.M.v.; , 1 1 1 , & , 1 w w 1 1 , 1 w & & , & ; c.v.v.c.> & , & 1 1 # 1 1 1 , 1 1 > c.n."
};
