/* XPM */
static char *_8b09bfd81df4bd78901017e75344050MRbFYf01nTPLpX0O[] = {
/* columns rows colors chars-per-pixel */
"64 64 64 1 ",
"  c #1E1E1E",
". c gray12",
"X c #202020",
"o c #3A3A3A",
"O c gray23",
"+ c #3C3C3C",
"@ c #3E3E3E",
"# c #3F3F3F",
"$ c #464646",
"% c gray28",
"& c #484848",
"* c gray29",
"= c #4B4B4B",
"- c #4C4C4C",
"; c #4E4E4E",
": c gray31",
"> c #505050",
", c gray32",
"< c #535353",
"1 c gray33",
"2 c #565656",
"3 c gray34",
"4 c #585858",
"5 c gray37",
"6 c #5F5F5F",
"7 c gray40",
"8 c #676767",
"9 c #686868",
"0 c #6A6A6A",
"q c gray42",
"w c #6C6C6C",
"e c #727272",
"r c gray45",
"t c #747474",
"y c gray48",
"u c #7B7B7B",
"i c #7C7C7C",
"p c gray51",
"a c #838383",
"s c #848484",
"d c #8E8E8E",
"f c gray56",
"g c #909090",
"h c #9A9A9A",
"j c #9B9B9B",
"k c gray61",
"l c #AAAAAA",
"z c gray67",
"x c #ACACAC",
"c c #B6B6B6",
"v c #B7B7B7",
"b c gray72",
"n c #C6C6C6",
"m c gray78",
"M c #C8C8C8",
"N c #D2D2D2",
"B c LightGray",
"V c gray83",
"C c gray87",
"Z c #DFDFDF",
"A c gray88",
"S c #EEEEEE",
"D c #EFEFEF",
"F c gray94",
/* pixels */
".O.O.O.O.O.O.O.O.O.O.O.O.O.O.O.O.O.O.O.O.O.O.O.O.O.OXO.O.OXO.O.O",
"2<2:2:2<2:=BZZZBZBZZZBZBZZZ.OszvVnBVnBbnxp2X=$$=$$=$$$<:2:2:2<2:",
"<42<22<22<$ZVnBvBBVnBBvBBMg.Opnvdzpdgddsz:O.Oqddpddduq7==$:$$==$",
"ddpdddpd.<=ZnnvBvMnvnMvvBd6.OzVxgzgzpxdzs2OXOdBZAZBZvvzdpdddpddd",
"VBBBvzds.2$ZVzzjzdxzzzjzzu<.Odvdgpxxxxpgr:O.OsZZvnbBZZZVZBnBBBnB",
"zzzzjzur.2$Svkzzzxjzgxpzzq<.@$zgxxpdjdzq2<O.OdBvzgxdzxkddxdxpzdj",
"vjjkzduq.==SVxpxdxdkjjgdzd<.O$idpzdxzszrOO@.OpZvdxpjpdgxsdjdzjgj",
"vzpbpj62.O$Fndkdzzkdiddzd62.O$$gzzkgddzqOOO.OgZxxpkuzkudzszxduzj",
"jzzdjr$=..:nvzjzpxdkpjggzw<..=<$uOOOOOOOO..OOrZAdxppjrjgzdduzxrd",
"ddpdr<=$.O$xSzjzgdgdgdpxp2u..@$OOOOOOO.O...$$=nngdddjjkpdxdzzpzg",
"tqrr:=OO..=gBdzddigdxszdxq2O.O$@.......O.O.=<$nzdxpzdpdrwq667676",
"22=$$....O@rZzpjuuuxjdpidq7O.O$$==rudzjzzjrO:=vdqr7774<<<$=$==$=",
".....O.O.O<$Znddgkjsdxugxd<O.O@rzzBZSVVBjq<.<$dq76<=$$OOOOO.O.O.",
".O.O..O.OO:$zBdxpudxgpjdpt:O..@zvABbpzdzprO.OOOO@OOOOOO.........",
"OOOOOOOOO@==gnxpxjpudidxd:2O.O@zZvzdggpgd:O.O..O..O..OX@@O@OO@OO",
"<=OOOOOO.O2$rMpzkdxjzszpz:r$..=zFzdszdxpz<O.O$2<22.$==$=$$$$$$$@",
"jjdkdjdkj..4$Mvjdsjjrdgddq2<..=zFpdzxpxdd:O.OqzZV4$2ujjdkjjdjkjj",
"BnBBMBvzt@.2$gvdxdugdszgqdw=..=znzxdpxdzp2O.OzBnz.$unBZZZBZZZBZB",
"zjdxdzzqrO.<=rjzpzzpzrdw<r<=..=zMzdqtrq<4<O.OBnzp.=jBBvvzbvvzbvv",
"zdjdxsdqrO.$<$jdtrqr<<t:r2$...OjdrdqO@OOOOO.6ZzdgX$jZzzjzdzdjpjj",
"zgdxpxzq2O.$<=7<2<2$$$@........dtOOO........7ZzzpX=jBzdkpkgkrpgp",
"zdzdxpdr:O.$<$XO.O..XX........OO:O.....O..O.dZzzd.=dnpzjxdxdjpjk",
"dxtugdxq2@.O:2=O........:==:===dddzzdddu2.@7vZxpi.=snzpjdkpkuudg",
"gppidxp7$O.OpZAAVnzzd6O=7uzzvnnZZZBZZZnjq.OiAnjzr.$pvzjdxpzduugd",
"ddxzpdg6=O.OBnzdjjzdjO:=uBSZZnbbnvnvnbnw2XOgZzkdq.=qnpzggjdpzdzd",
"kzsdzpr<OO.OZjdkzzdjz.<=jZndzszjpzjxkds7$.OdSzpz2.=$gr62<<7qqugp",
"767672$OOO.OBzzzpzdx6.=$kSxjxduxzdpdxpz2$.OsFzzg2.2.OO$$$$=$$<22",
"<:$OOOX....OZpzdxxdu6.==jFpzdjzpdigzddd<=.OdSpzd<.2O....X....OO$",
".......O.=:$Zzjpzdxu6.O$jSdgzpdidigpgzd<=.OsSxxp2.2O@OOOO@.O....",
"$77qgjgpgd$.Zzrjdxps7O.$dFxdsdididzudsz<$.OdFdzz:.2$@$:<:2<<2@OO",
"7dvZBABBnzr.ZzzpigzpqO.$gZvjdxdxrugidxp2O.@dBddz:.:zZBvd62$$=$$<",
"qzBnnbzzkz@XSdjzudzjq$.=uBnxsdtduuxdxpp:O.OdZxdd<.=ZsdvZZBZZZdO<",
"7Zvzxpxdzpr.Fjxdzxpzq=.O:MZzzjdzpxuudxq2O.@dBdzd<.=Zdpxxpgxgpp@:",
"qBvjpxdzpzr.Skpjzdxp7<..2xSzzkgdiduuxpr=O.=dBxxp2.$Zzzpgzzpxg6O$",
"7Zzgxdzziz:.Zzzzdddzq:.O<dSbzdzpdkpxdz6$.O@gBkdz:.=nzdzxpgzdz6O$",
"7Zzxdgjjxp2.Zvujuxzj62..=qBvzgujsdkddd6O..:dBdx:2.:nzjzdxpdxj2O$",
"7Bvdzzdzpx<.nZpjzgdg62..=<vZzpzdzdxpg7<O.O$uzu:OOO@zzdzjdzdpz2OO",
"7Avxkdzdxd:.vZuzpggzq4..O:dvzdu762$=OOOO.O@2OOOO@$.r<$<2<22<22OO",
"7Zxdxxpxux<.jBjuzzpgq2..O<$dd72=O........O$:$$<<222............O",
"qBvgpjxdxs2.uZzjzsdz7:...:$@.O....O.O..O.O=<2$$=$$$=$$OOOOOOOOOO",
"7Zvzzpjzgz<.2Fgjdgxpq<..O$$$OOOOO=$=@<=$=$=2<uuiuiuiuuuuuuiuurO:",
"7Zzdgzpzdq2X$Sxdpudxq2...@quuuuiuuuuuuuudddjzbznvnvnvbnbnvnvnuO:",
"7nvzzgzdz:..<Sjdxdgp72O..OuMvnvnbnnvnbnbnvBZZSSSSFSFSFSFBZBVd7.=",
"qBvdzdzxp2.O@Sdzujpx7:O...unnSSFSFZZFSZSFFSSZZVVvvbnvzbnvvnvi2.:",
"7vvxdxpgd:.O$Zzzpxdg72O...uMnvnvMvnxvnzvnbvzzjkddxdxpgdxpzdxq2@O",
":Mpdxprqr<.O$Vpgxpzdq2O...7bAvgdpdgdzszxddjzzzdukpzzjpxdxzkdq<.O",
"$vzzjd22<..@=vzpdxdpr<O...$nZvdggzdkgkzsgjzzpjdkgdupjjdzszdxq2OO",
"$uui2<2<<.OO@jjzsddq7<O...XvZBzzpggdudpxdkpxjusdzsdxdutgujddr<.O",
"$@...2<<2.O@=u7777672<O...OzBBdsxdzpdzdiujkpxdxddxpgudgpxdtpw4.O",
"<2<$O....OO@OOOOOOOOOOO....dBvzdgzpzigpjukdkixpdudgdpxdidgpuq2.O",
"$=$$$:$O..O=OO............Opjqrrqrrqzdzzpgupdguddzpxddzpgdgjq2.O",
"$uzzzzgd7:=<OO..O..O..O.O.O<$OO.O.@X2tquduuuuuuuiuuuuuuuiuuu7:.O",
"$xnBZBZZvzzdq62=OOOOOOOOOO@2$$OOOOOO.=<<4<222<2<<<2<22<2<2<<2.OO",
"$zBzzdvBZZZvzzzzzxzjdgpiuqq7:4=$$$$OO.O.O.O.O.@.O.............O@",
"=zZzzzvzdzvZZZBZBZBZAZZnBnbzzzzzp=<$OOOOOOOOO..O.O.O.O.O.O.OOO$=",
"$zZzpzuuzjduzpzdxdzzpzdzzznVZBBvpO$:=$$OOO.OOOOOOOOOOOOOOOOO@$:<",
"$znzzzdzdddjxpdxurdzudpdzpzdzzzu7.O:=zBZju==$<<<$$$$$$@=$$$$:2<<",
"=zMzsziujxpzzjpuzudujszdzdzpzzj7<.@$$ZzzZZZBv<<=vZZBAZZBBnzju=$<",
"$zp76767677676q7676767q676777672<OXO$Bvzvzvvv62uZjzzgzpxjzdzBjX<",
"$d7OO@OOOO@OOOOOOOOOOOOOOOOOOOOoOO..=vzvvj6jp7$vzdxpzzxpzdzpz<X2",
"$O..................................:O$O:76776=Zjjjzzdjzjkxdd:.2",
"2=OOO.O..O..O..O.O..O..O..O..O..O.O.@:2OO.....O<2<<<<<2:<2<2<2.<",
"<2:<$$$==$==OOOOOOOOOOOOOOOOOOOOOOOOO:2<<OOOOOO:<..............2",
"OOOOOO@OOOOOOOOOOOOOOOOOOOOOOOOOOOOOOOOOOOOOOOOOOOOOOOOOOOOOOOOO"
};
