/* XPM */
static char *_147003910a549a5d94a71718d22317cJ1c3ebccI4M0Iydk[] = {
/* columns rows colors chars-per-pixel */
"64 64 161 2 ",
"   c black",
".  c #010000",
"X  c #000100",
"o  c #010100",
"O  c #010101",
"+  c #000201",
"@  c #000002",
"#  c #010002",
"$  c gray12",
"%  c #201E1F",
"&  c #1F211E",
"*  c #1E201F",
"=  c #20201E",
"-  c #21201E",
";  c #21211F",
":  c #00003E",
">  c #00013E",
",  c #00003F",
"<  c #211F20",
"1  c #201E21",
"2  c #211F22",
"3  c #1F2120",
"4  c #202020",
"5  c gray13",
"6  c #222021",
"7  c #202022",
"8  c #202123",
"9  c #2C2C2C",
"0  c gray22",
"q  c #393939",
"w  c #000040",
"e  c #010040",
"r  c #000041",
"t  c #00004B",
"y  c #01014B",
"u  c #01004C",
"i  c #00014C",
"p  c #01004E",
"a  c #000055",
"s  c #000056",
"d  c #000057",
"f  c #020056",
"g  c #000058",
"h  c #000158",
"j  c #010159",
"k  c #020058",
"l  c #030059",
"z  c #00005A",
"x  c #01015B",
"c  c #000062",
"v  c #010062",
"b  c #000063",
"n  c #010163",
"m  c #000064",
"M  c #010064",
"N  c #000065",
"B  c #000165",
"V  c #010165",
"C  c #00006E",
"Z  c #00006F",
"A  c #01006F",
"S  c #02006E",
"D  c #000070",
"F  c #000170",
"G  c #000071",
"H  c #010171",
"J  c #020070",
"K  c #000072",
"L  c #020072",
"P  c #000079",
"I  c #00007A",
"U  c #01007A",
"Y  c #00017A",
"T  c #00007B",
"R  c #00007C",
"E  c #01007C",
"W  c #00017C",
"Q  c #00007D",
"!  c #01017D",
"~  c #02007D",
"^  c #00007E",
"/  c #01007E",
"(  c #535353",
")  c #545452",
"_  c #555553",
"`  c #555354",
"'  c gray33",
"]  c #555555",
"[  c #545456",
"{  c #000087",
"}  c #010187",
"|  c #010088",
" . c #000188",
".. c #020088",
"X. c #020189",
"o. c #000289",
"O. c #01008A",
"+. c #00018A",
"@. c #02008A",
"#. c #02018B",
"$. c #000095",
"%. c #000096",
"&. c #000097",
"*. c #010097",
"=. c #000098",
"-. c #000099",
";. c #010099",
":. c #020098",
">. c #01009A",
",. c #03009A",
"<. c #0000A2",
"1. c #0000A3",
"2. c #0100A3",
"3. c #0001A3",
"4. c #0100A4",
"5. c #0001A4",
"6. c #0000A5",
"7. c #0200A4",
"8. c #0201A4",
"9. c #0300A5",
"0. c #0201A5",
"q. c #0002A5",
"w. c #0000A6",
"e. c #0100A6",
"r. c #0200A6",
"t. c #0201A7",
"y. c #0000AE",
"u. c #0001AE",
"i. c #0000AF",
"p. c #0100AF",
"a. c #0200AE",
"s. c #0000B0",
"d. c #0000B1",
"f. c #0001B1",
"g. c #0101B1",
"h. c #0200B0",
"j. c #0000B2",
"k. c #0200B2",
"l. c #0000B9",
"z. c #0000BA",
"x. c #0000BB",
"c. c #0000BC",
"v. c #0100BC",
"b. c #0000BD",
"n. c #0100BD",
"m. c #0100BE",
"M. c #0000C7",
"N. c #0100C8",
"B. c #0001C8",
"V. c #0200C8",
"C. c #0201C9",
"Z. c #0000CA",
"A. c #0100CA",
"S. c #0000D3",
"D. c #0000D4",
"F. c #0101D5",
"G. c #0200D4",
"H. c #0000D6",
"J. c #0100E0",
"K. c #0001E0",
"L. c #403FFD",
/* pixels */
"0 D ^ T ^ T T ^ T T ^ T T T T ^ T T T T ^ Z 0 0 ................................................o...} ..0 0 Z T T T ^ T T ^ Z 9 ",
"& e.2.e.2.2.e.2.2.e.e.2.2.e.e.8.2.e.2.e.2.e.= = v.v.v.v.v.x.v.v.v.v.v.v.v.v.x.v.v.v.v.v.v.v.v.v.x.v.v.v.7 = i.s.s.s.s.s.i.s.s.= ",
"  2.2.e...e.^ e.2.*.^ =.=.^ =.*.T 2.T Z Z g   7 v.e.v.s.^ 2.v.=.D D =.} e.2...D ..q.x.e.o.=.2.v.v.e.=.D   7 s.x.e.=.e.s.s.:.^   ",
"  e.*.T ..=.*.*.^ T 2.*.e.n =.=.^ D ^ ^ D n   7 v.v.e.=.=.=.D =.g D g d T e.e.n D D b D D g D ....D n D   7 s.i.2.2.T *.e.e.g   ",
"  e.} e.Z M.N.=.T ^ ^ *.} ..^ b g ^ D g d n   7                                                           7 s.e.s.x.v.i.2.T ^   ",
"  2.} ^ e.N.M.b T T T 2.=.=.=.} D D ^ d g w   = 2.e.2.e.2.e.2.e.e.2.e.e.e.2.e.e.2.e.e.= = = 7 7 7 = 7 3 = 7 s.x.e.i.e.^ ^ b g   ",
"  2.*.*.i.s.e.e.e.*.2.e.e.=.=.D D n g n D n   7 2.x.x.v.i.e.*.=.v.=.=.s.=.=.i.x.x.2.e.  7 q.e.2.2.=.*.n 7 = s.*.*.2.^ ....n n   ",
"  e.e.*.2.s.i.2.*.^ b 2.e.=.....^ n n g w w   = e.i.x.J.N.s.2.v.e.=.=.=.s.i.2.e.e.*.2.  = 2.=.=.} =.T n   7 s.=.=.2.D ......n   ",
"  2.=.T *.2.2.} *.^ =.Z D ......D ^ T b g w   7 e.s.N.v.N.=.i.e.2.x.=.=.e.T e.^ *.2.^   = e.*.=.*.T ^ n   7 i.x.e.*.2.e.} ..w   ",
"  e...} ..2.^ ^ T 2.e.D d n n D n ^ ^ T g w   7 2.s.s.s.=.=.=.s.e.2.2.e.=...b ^ T ^ n   = e.2.=.^ ^ d d   3 v.^ ^ *.2.e.*.g w   ",
"  =.T } e.....D =.2.e.D Z b g n n n ^ ^ g w   7 e.x.i.s.s.=.=.s.v.v.2.e.b n } ^ ^ n g   7 2.e.=.T 2.^ d   2 v.^ x.2.T =.*.d w   ",
"  =.} *.^ ^ e...n ^ d T b d b { w d , w n w   7 e.x.2.e.s.s.s.i.v.s.i.2.n b Z 2.n n w   = 2.^ ..=.T d k   7 v.v.T ^ b n ^ ^ w   ",
"  =.^ =.T b ....^ n ^ n ^ n w D D , w w n w   7 2.s.e.2.=.v.=.=.e.i.i.2.=.=.^ T g g n   7 e.} ....D D n   7 x.T D n ^ n T ^ w   ",
"  =.=.T ^ ^ D n g g b ^ b D b w w D w n g w   = 2.s.J.N.....=.=.} ^ ^ ^ ..=.} T n n w   = e.e.} ..D D n   = x.T ^ D g g d g w   ",
"  *.^ *.n n D n ^ b w w w w w w w w w w w w   7 e.v.M.N.....} 2.2.T } ..^ ..Z ^ n g w   7 2.T *.e.g g g   7                     ",
"                                              & 2.x.e.e.=.....e.e.e.} ..=.n n ^ n x w   7 e.e.e.*.e.g n   = 7 = 7 7 = = 7 7 = 7 ",
"e.x.i.2.s.e.2.q.2.2.s.2.2.e.2.  s.s.s.e.e.*.=.  2.i.*.2...=.e.e.2.e.^ =.*.^ ^ g g , w   7 =.e.=.2.*.Z n   7 e.8.e.2.  v.v.x.x.v.",
"v.i.e.*.e.v.i.2.} e.e.T e.*.^   s.s.=.v.x.T v.  e.2.e.2.x.e.=.2.e.2.} b D ^ w w n g ,   = *.*.^ D ^ D g   = 2.i.} ^   v.v.e.s.x.",
"v.i.*.=.} e.2.} T =.*.^ T *.=.  s.v.v.s.=.^ ^   e.i.=.8.x.2.} T } } n ^ ^ Z w w n w w   7 =.*.g g g n w   7 e.i.i.T   v.e.s.s.s.",
"s.e.=.s.i.*.*.^ T ^ *.^ T ^ ^   s.v.s.s.=.=.n   2.i.e.e.e.} e.T ^ n D D g g g n n d w   7 =.^ g n g g w   = 2.} ^ d   v.x.v.s.s.",
"e...*.i.v.s.^ T =.=.^ =.d T ^   i.x.=.^ *.=.b   e.e.2.=.=.=.*.^ b g n n g n n g w , w   7 *.T n g g w w   7 e.d n g   v.x.i.s.s.",
"2.2.} *.s.D.^ =.^ ^ b n D ^ T   s.*.x.^ T ^ b                                           7                           7 x.x.2.2.=.",
"i...^ ..=.2.*.T ^ *.n D ^ d g   s.=.*.n T ^ d   & 2 & 7 7 7 7 = = 7 7 7 7 = 6 = = 7 7 % 7 = = 7 7 s.s.s.s.s.s.i.s.7 7 x.e.e.=.=.",
"i.e.} *.^ =.^ =.*.^ D ^ b T d   s.v.=.} n g n   7 s.i.s.i.i.s.s.s.s.s.s.s.s.i.s.s.s.s.s.i.*.e.7 7 i.N.s.N.2.e.2.=.  7 x.i.=.=.=.",
"i.i.*.} i.*.=.*.=.^ T Z g g g   e.v.^ } ..n g   7 s.v.s.e.v.v.v.s.x.e.s.e.x.i.^ 2.v.v.x.T e.g   7 s.N.i.N.N.e.=...  = v.v.=.=.=.",
"s.e.} T ..s.s.b ^ *.} ..D g n   2.T n Z D g n   7 s.x.e.s.M.J.J.v.S.J.e.x.e.2.x.v.e.e.e.2.T g   7 s.N.M.N.M.2...^   7 v.s.v.2.e.",
"e.=.^ } 2.s.s.2.=.T ....D g n   *.^ g d g g n   7 i.i.e.x.S.D.J.v.H.H.D.s.^ e.T T 2.T T 2.d d   = i.s.e.N.e.} 2.b   7 x.v.v.e.2.",
"s.*.s.*.*.e.s.2.n ^ D D D g x             @     = i.x.x.s.s.N.N.e.2.H.D.e.e.T T ^ D 2.^ ^ d g   % s.N.2.2.e.e.} b   = x.v.v.s.i.",
"2...} e.2.=.2.e.n D g n g w w @ 7 = 7 = 7 = 7 = 7 i.i.v.s.s.s.e.2.e.v.2.e.2.^ } ..^ T d g g n   7 s.N.N.e.2.} T D   3 v.e.2.x.s.",
"e.=.} e.e.2.*.^ D n d b n g g   3 s.s.s.i.e.2.7 7 i.2.e.v.s.....e.v.s.T 2.e.^ } ..#.D Z D g x   = s.N.N.=.=.e.e.g   7 v.2.e.s.s.",
"*...=.} e.2.T b n g g d n w n   7 i.s.} 2.=...  = i.v.s.v.s.} ..2.2.2.^ 2.7.2.Z ..#.g D D D w   7 s.s.N.=.=.=.2.g   3 v.v.=.=.T ",
"*.....^ } } ^ b n D { T n w w   = i.e.2.=...=.  7 i.v.v.e.i.s.s.*.e.T T ^ 2.e.D g n g n D D ,   7 s.s.e...i.e.e.n   3 v.....=.=.",
"*.} e.=.Z ^ ^ Z n D T ^ n l w   7 s.e.=...D n   7 s.v.e.T 2.s.s.2.2.^ Z T b D D Z d w w g w w   7 s.s.N...s.s.=.n   = v...} ^ T ",
"=.e.*...} T b b g u u D n g e O 7 s.s...s...g   = s.2.2.v.^ e.q.=.T D T ^ b n D D n w w n n w   = s.e.N.2.} =.=.g   7 v.v.^ T T ",
"^ *.*...^ T T ^ g u u g g n w   7 s.s.s.D D n   = s.^ x.^ 2.2.^ ^ D n T ^ ^ n n g g b b n u w   7 s.N.e.e.*.d D n   2 x.2.2.*.=.",
"^ ..} ^ Z T T ^ g g n g g x g   7 s.s.s.e.g g   7 s.2.x.^ 2.e.D b b g ^ T ^ n g g g d u u u w   = s.N.2.*.^ =.D g   7 x.e.e.=...",
"T ..n D ^ b ^ ^ g n g w g n g   7 s.*.*.g ..n   = s.e.^ e.2.Y g g g g b n n n g w w w w w w w   = s.N.e.T =.*.T n   7 x.*.e.e.T ",
"T =.^ n ^ n Z d n w w g w w w   = s.=.=.s.g n   7                                               = e.s.2.^ n ^ ^ n   = x.*.....T ",
"T ..=...D ^ D g g g w n w g w   7 s.s...s...g   7 = 7 5 ; 7 7 5 7 6 7 = 7 = 7 7 3 3 7 3 7 7 = & & e.i.i.2.T g n w   2 x.v.} ..^ ",
"T =.} ^ n D ^ D w w w w w w w   7 s.f.....g n   7 q.2.2.e.2.2.e.2.e.2.2.e.e.2.2.2.2.2.e.2.2.e.7 7 2.i.e.v.e.T n w   3 v.=.=.T } ",
"                                = i.i.^ T d d   = e.x.v.v.x.v.v.i.e.e.2.q.e.2.e.*.} T v.=.e.^   = e.M.e.e.x...g w   7           ",
"= 7 7 7 7 d g D D } ....^ D n = & 2.i.T T ^ g   7 s.x.N.N.v.2.e.s.s.N.x.=.*.2.2.*.^ } ^ ..=.T   7 2.2.e.2.....g w   7 ..=.....  ",
"2 *.e.s.v.v.v.v.x.x.x.x.x.v.x.7 7 2.e.} ^ ^ n   7 i.v.N.N.N.s.s.s.s.v.v.^ T T T 2.2.2.=.=.^ n   & e.N.e.T D g g r   7 =.*.^ ^   ",
"$ 2.x.x.v.v.v.s.e.i.x.e.2.e.x.  = e.e.*.g n n   = i.v.v.v.v.D.D.s.i.i.^ T T ^ ^ ^ *.^ ^ L =.n   = 2.s...D n g D w   7 =.^ D D   ",
"& e.v.s.s.D.D.s.v.v.v.=.e.v.v.  = e.=...g g g   = s.v.v.s.v.D.D.D.^ 2.=.^ T D D Z } T T T T n   7 e.2.D n D g g w   7 =.Z ^ d   ",
"7 v.v.v.s.D.D.v.=.=.e.x.x.=.s.  7               7 2.s.x.k.v.v.D.F.v.2.e.=.T Z Z n n d { T ^ n   = ..T ^ g g g n w   7 ..T D g   ",
"= v.e.s.e.s.s.s.*.*.*.x.q.} }   = 7 7 = 7 = 7 7 7 2.e.s.N.=.=.v.0.v.e.2.e.2.T ^ n n ^ n d u u   7                   7 } D g n   ",
"3 v.v.s.*...s.i.e.=.=.e.v.v.e.  7 x.v.s.2.e.=.= = 2.e.N.N.=.=.=.s.e.2.2.T T =...D n n g g w ,   = = 7 = 7 = 7 7 = 7 7 = 7 2 8   ",
"7 v.v.=.2.v.s...e.s.i.i.^ 2.e.  7 x.T x...=...  7 2.x.x.v.s.=.=.v.v.x.e.T ^ T T N N n g g w w   = s.s.s.s.x.v.v.v.v.v.v.v.x.v.  ",
"= v.v.v.x.e.} v...s.^ T e.} e.  3 v.e.i.s.=.^   7 2.i.e.2.i.s.s.v.v.v.v.2.T ..Z g n N n D g u   = s.s.e.e.s.s.i.s.e...x.e.q.^   ",
"3 v.e.x.*.2.e.v.s.=.^ t T 2.2.  2 v.x.T e.T D   7 2.x.e.2.e.*.e.v.v.v.v.2.e.e.d g x g n D D n   7 s.e.s.D.D.s.s.s.=.e.2.2.*.T   ",
"2 v.s.=.*.M.H.v.e...2.^ ^ 2.e.  7 v.s.e.2.^ e.  = e.x.x.2.e.v.....v.v.v.2.2.2.Z g g n g u u u   7 s.v.v.D.N.N.s.s.....e.=.^ n   ",
"& v.e.x.2.J.L.J.=.=.e.=.} ^ }   7 x.s.2.T e.D   7 2.e.x.*.*.T T ^ ..e.2.e.^ T ^ n n x g g w w   = s.*.x.=.N.N.s.i.e.e.T ^ T d   ",
"3 v.s.v.s.v.J.v.e.T 2.2.t u n   = x.e.i.s.^ n   7 2.e.v.e...} ^ T T ..T ..d d =.=.D D x u w w   7 s.x.i.=.=.=.2.e.T T ^ T d n   ",
"2 x.e.v.s.i.s.} } } ^ Z t a n   7 v.x.i.*.} b   = 2.=.v.x.*.v.T ^ ..^ T ..^ d =.=...D D n g n   = s.s.e.=.=.=.2.T D n ^ g g n   ",
"& e.x.i.s.2.^ T *.e.=.=.T n n   = x.i.e.....^   7 2.x.*.e.x.e.} T D D } ..g g ^ =.=.^ D g g w   7 s.s.=.e.*.=.e.^ D n D ^ g d   ",
"7 v.e.v.s.....i.T e.e.=.D ^ d   7 x.2.v.^ T ^   3 2.v.2.e.e.=.} 2.e.D D g D g g ^ ^ ^ n g g w   & s.s.x.s.} s.s.*.T n =.=.d w   ",
"= x.2.x.e.=...^ b } 2.e.=.D n   3 v.x.2.n b n   2 2.e.2.*.*.T } 2.2.e.D n D D g u u t n w w w   2 v.v.i...e.s.s.s.*.T *.=.^ w   ",
"7 i.e.} } } 2.n u b ..=.=.D D   = v.i.e.^ D g   $ 2.s.e.*.=.v.e.^ 2.e.g g D D n g w w g , w w   & v.i.e.X.e.e.i.s.=.^ ^ T ^ w   ",
"= i.e.D n ..b e.^ T =.g b g g   7 i.e.n n n g   7 e.i.x.^ v.v.2.d b b n d g u u t w w u g w w   3 v.i.2.x.2.2.T ..D Z T ^ g w   ",
"7 2.e...} n ..g n g n D n Z b   = s.e...D b b   % 2.2.s.v.e.T *.d b n n x d w w Z Z n w u w g   2 v.v.v.=.e.T T D T T Z b w n   ",
"7 2.*.^ T T ^ T Z D Z Z ^ ^ T 7 7 e.} T ^ T ^ 7 = e.e.=.e.=.T ^ ^ ^ ^ T D b g g ^ T ^ T g g D 7 7 x.2.e.T *.2.^ ^ T ^ ^ D D ^   ",
"0 ..} } T T ^ ^ ^ ^ ^ T ^ T T 0 0 ....T T T T 0 0 e.M.} ........T T T T ^ T ^ Y ^ T T ^ ^ T ^ 0 0 v.....T ^ T ^ T T T T ^ ^ ^ = ",
"' ' ' ' ] ( _ _ ( _ _ ( _ ] _ ] ' ' ` ] ( ] ] ( _ ( _ _ ' ' ' ' ' ] _ ( _ ] _ ] ( ] _ ' _ ] ' ' ' ' ' ' ' ' _ _ ] ] ( _ _ ( ] 0 "
};
