/* XPM */
static char *_f1b30a389dc4f50bde2cc9ce1d92956LqmsvgWfdocDpmb6[] = {
/* columns rows colors chars-per-pixel */
"64 64 116 2 ",
"   c #271F0C",
".  c #271E0D",
"X  c #2A1F0D",
"o  c #281F0E",
"O  c #27200D",
"+  c #27200E",
"@  c #28200B",
"#  c #28200D",
"$  c #29210E",
"%  c #372D14",
"&  c #3A2B14",
"*  c #382C14",
"=  c #382C16",
"-  c #3F2F16",
";  c #3F3117",
":  c #412F17",
">  c #412F19",
",  c #403016",
"<  c #403017",
"1  c #473715",
"2  c #463716",
"3  c #473716",
"4  c #493616",
"5  c #4A3717",
"6  c #473916",
"7  c #473817",
"8  c #483816",
"9  c #483817",
"0  c #413118",
"q  c #403019",
"w  c #473618",
"e  c #483719",
"r  c #4A3719",
"t  c #473819",
"y  c #483918",
"u  c #493918",
"i  c #49381A",
"p  c #48391A",
"a  c #543C1A",
"s  c #543D1B",
"d  c #553D1B",
"f  c #563C1B",
"g  c #553A1C",
"h  c #543B1C",
"j  c #563B1D",
"k  c #533C1C",
"l  c #553C1D",
"z  c #543D1D",
"x  c #563E1C",
"c  c #553C1E",
"v  c #543D1E",
"b  c #573C1E",
"n  c #563D1E",
"m  c #563D1F",
"M  c #553E1E",
"N  c #5C3F1D",
"B  c #5C3F1F",
"V  c #5C3F21",
"C  c #5E3F20",
"Z  c #5D401E",
"A  c #5B4120",
"S  c #5B4022",
"D  c #5D4020",
"F  c #5E4121",
"G  c #5D4022",
"H  c #5E4123",
"J  c #6B4723",
"K  c #6B4725",
"L  c #6B4822",
"P  c #6B4923",
"I  c #6C4923",
"U  c #6B4924",
"Y  c #6B4926",
"T  c #6C4824",
"R  c #6D4925",
"E  c #6E4824",
"W  c #6F4925",
"Q  c #6D4A24",
"!  c #6C4A25",
"~  c #6C4826",
"^  c #6D4927",
"/  c #734B27",
"(  c #754B25",
")  c #754A27",
"_  c #734C25",
"`  c #734D26",
"'  c #744D26",
"]  c #764C26",
"[  c #744E27",
"{  c #754E27",
"}  c #734B28",
"|  c #764B28",
" . c #764B29",
".. c #734D28",
"X. c #734D29",
"o. c #744C28",
"O. c #744C29",
"+. c #754D29",
"@. c #774C29",
"#. c #744E29",
"$. c #8F5B33",
"%. c #8F5C31",
"&. c #8D5C33",
"*. c #8E5D32",
"=. c #8E5D34",
"-. c #8F5E35",
";. c #905B33",
":. c #915C32",
">. c #905D32",
",. c #915E33",
"<. c #915B35",
"1. c #905C34",
"2. c #915C34",
"3. c #905C35",
"4. c #915D35",
"5. c #925D35",
/* pixels */
"< < < < : < < < : < < - < - < : < < < < : ; > 0 : < < < 0 : ; : : ; 0 0 ; : ; > ; 0 ; > : > < < < < < < 0 : < < < < 0 0 0 : < < ",
"T T T T T T T T T T T T T T T T T T T _ T T T T T T T T T T T I T T T T T T T U K T T T T T T T I T T T T T T T T T T T T T T T ",
"1.1.1.$.1.1.1.1.1.1.1.1.1.1.1.1.1.1.<.>.=.$.$.=.1.1.1.1.1.1.1.1.1.1.1.1.1.1.<.*.1.1.1.1.=.1.1.1.1.1.1.1.=.1.<.>.>.1.1.1.1.1.1.1.",
"l l h l l h l * l # * d l l l l b l l l h V v h l * l # * l l l b * l # * l l h l l l * l # * d l l l h l l l l h h * l # * l l ",
"9 9 T o.' o.o.l <.X l 1.F 9 9 9 e ' o.9 T 9 T 4 u l 1.X l =.o.4 @.l 1.# l >.F 4 u 7 N l 1.# l 1.9 ' 9 9 ' e o.e o.o.l 1.# l >.T ",
"9 3 T o.o.o.F l *.@ l 1.T u 9 9 h @.o.e T 9 T 9 t l 1.# l <.o.u o.l 1.# l 1.o.F 4 F ..l >.# l >.9 o.9 9 ' 3 ] 3 o.o.l 1.# l <.T ",
"9 e V ' o.o.l l <.X l 1.o.l 9 9 l ' o.9 T r T 9 9 d >.X l >.T e o.h 1.# l 1.o.' N o.} l 5.X b 1.e o.7 9 o.9 ' 9 o.o.l 1.# l 1.T ",
"l 9 l U o.o.l h *.O l >.o.l 7 4 F o.T 9 T 9 T 9 9 l 1.# h =.T u o.l 1.# l 1.o.o.o.o.o.l 1.  l 1.9 o.9 9 ' e o.e o.o.l 1.# l 1.T ",
"T 3 e Z ' F 9 l <.O l =.o.F u h T o.T 9 T 9 T 9 u l 1.# h $.T 9 o.l >.# l 1.o.o.o.o.o.l 1.# l 1.9 o.9 9 o.9 o.e T o.h $.O l 1.l ",
"T u l 9 Z l 9 l 1.  h 1.o.T u N ..o.F 9 I 9 J 9 u l 1.# l >.F 9 o.l 1.# l 1.o.o.o.o.o.l 1.# l 1.9 o.9 9 o.9 o.e T o.V 1.O h 1.l ",
"o.l 7 7 l 9 9 l 1.# l 1.o.o.V I o.o.F 7 I 9 T 9 w l 1.# l 1.F 4 o.l 1.# h 1.o.o.o.o.o.l 1.# l 1.9 o.9 9 o.9 o.9 F o.h =.X l 1.l ",
"o.l 7 9 9 9 l l 1.# l 1.' o.T o.o.o.h 3 T 9 T 9 7 l 1.# l 1.9 e o.l 1.# l <.o.o.o.o.o.l 1.# l 1.9 o.9 9 o.9 ..3 N o.l 1.  l <.e ",
"T { 9 9 u l o.l 1.# l >.o.o.T o.o.o.h u T 9 T 9 9 l =.# l 1.u V o.l 1.# l 1.T o.o.o.o.l 1.# l 1.9 o.9 9 o.u o.l u o.l 1.O l 1.9 ",
"T o.d 9 9 l o.l 1.# l 1.o.o.o.o.' T u 4 T 9 T 9 9 l 1.# l 1.u F o.l 1.# l 1.T o.o.o.T h 1.# l 1.9 o.9 9 o.9 o.l u @.l 1.O l >.9 ",
"F o.o.9 l o.o.l 1.# h <.o.o.o.o.o.T 9 9 T 9 T 9 u l 1.# l 1.u o.o.l 1.# l 1.F o.o.o.T h 1.# l 1.9 o.9 9 o.9 o.l 4 ..l 1.# l <.7 ",
"l o.o.o.l o.F l 1.# h <.T o.o.o.o.T 9 9 T 9 T e e l 1.# l 1.F o.o.l 1.# l 1.e I o.T F l 1.# l 1.9 o.9 9 } u o.h u o.l 1.# l 1.l ",
"9 _ o.o.V o.h l 1.# l 1.T @.o.o.o.V 9 9 I 9 I 9 9 d >.O l 1.F o.T h >.# l 1.9 V L F u l =.O V 1.9 o.9 9 o.4 o.V e ] l >.# l 1.l ",
"9 K o.o.] o.l l 1.# l 1.F o.o.o...F 9 9 J 4 T 9 9 l <.@ l 1.o.o.T l 1.O l 1.9 u F 9 w l $.O h $.9 o.9 9 ..7 o.A e T l 1.X l >.l ",
"7 F K o.....u h 1.o l 1.F o.o.o.' l e e T 9 J 9 9 l 1.# l 1.o.o.F h 1.# l 1.9 9 3 u u h $.O h $.9 o.9 9 ..4 ' T 4 I h 1.# l 1.T ",
"9 l I o.o.F 9 h 1.# l 1.h T o.o.' h u h T 9 T 9 u l 1.# l 1.o.T F l 1.# l 1.9 9 u 3 t l 1.# V 1.9 o.9 9 ..u #.T 9 I l =.# l 1.T ",
"9 9 F o.o.l u h 1.# l 1.l K ' o.I 9 u h T t T 9 t l >.# h 1...T 3 h >.# l 1.u 9 4 4 u h 1.# l 1.9 _ u 9 ..9 o.T u H l 1.# l 1.T ",
"e 9 l o.o.h u l 1.# l 1.9 F o.o.T 9 e h T u L 4 u l <.O l 1.o.A u h 1.# l 1.F 4 3 u F l 1.# l 1.e o.4 9 ..9 o.' 4 F l 1.# l 1.T ",
"l u l Z l 9 4 l =.# l >.9 N o.o.V 9 3 F T 3 T u w l 1.# l 1.L w u l =.X l 1.K F 3 F K l 1.# l 1.9 o.9 9 o.u T o.u t l 1.# l 1.T ",
"l 9 9 l 7 7 l l 1.O l $.u l T J Z 9 u Z K u T 3 u h 1.# l 1.F 9 e h =.X l 1.o.T V T ` l 1.# l 1.9 o.9 9 o.4 T o.l 9 l 1.# l 1.T ",
"l 9 9 9 9 9 l h 1.X l >.9 l Z F l u 9 F Z 9 I u u l 1.O l =.9 4 9 l 1.# d 1.o.o.T o.o.l 1.# l 1.9 o.9 u _ w J o.l 9 h 1.# l 1.F ",
"T 4 9 9 u 9 T b 1.# l <.7 9 l l u 4 9 J l 9 T 4 w l =.# h 1.u 9 9 l 1.# l 1.o.o.o.o.o.l 1.$ l 1.9 o.9 4 } 3 b o.F u l 1.# l 1.h ",
"I 9 9 9 9 9 T h 1.# l =.9 9 3 9 u 4 4 U b 9 J e u l <.# l 1.u w l l =.# h $.` ] o.o.o.l 1.# l 1.9 o.9 9 ..e d o.F 9 l 1.# l 1.l ",
"T l 9 w 9 h F l 1.# h 1.9 9 9 9 7 u l o.9 9 T 3 e h >.# l 1.t u l l 1.# l <.o...o.o.o.l 1.# h 1.9 o.9 9 o.9 l o.L h l >.O l <.u ",
"F h 9 9 9 l l h ;.# l 1.u 9 9 9 9 9 F } 9 9 _ 3 9 l 1.# l 1.9 7 F l 1.# l 1.T o._ } o.l 1.# l 1.9 o.9 9 o.9 l o.T l l 1.# l 1.9 ",
"l T 9 9 9 T l l 1.# l 1.9 9 9 7 9 9 Z o.9 3 T 9 9 l 1.# l 1.9 9 T l 1.# h 1.T o.o.o.o.h 1.# l 1.u o.9 u o.9 9 o.o.N 9 1.# l 1.3 ",
"l I h 9 9 I 9 l 1.# l 1.9 9 9 7 9 9 T o.9 9 I 9 9 l 1.# l <.7 h T h 1.# l 1.V o.o.o.I l 1.# l 1.9 o.9 4 o.9 9 o...F l 1.# l 1.9 ",
"u V l 9 T F 9 l 1.X l 1.l u 9 4 e 4 T o.9 9 J 9 9 l 1.# l >.3 Z o.l 1.# l 1.N I o.o.U l >.# l 1.9 o.9 u o.9 9 T } T l 1.# d 1.w ",
"u l T l T l 9 l 1.# h 1.V u 9 9 9 l o.T 9 l T 9 u l >.# l 1.l J o.l >.# b 1.u T o.o.V l 1.# l 1.u o.4 u o.u 4 I o.T l 1.# l 1.u ",
"u l T h T l 9 l 1.  l 1.I l u 9 9 V o.I 9 l T 9 e h >.X l 1.C o.o.b 1.# l 1.9 V o.I 9 b 1.# l 1.u } e u ' l u V o.o.l 1.# l >.9 ",
"e u Z U F 4 9 l 1.# l 1.o.V 9 9 l Z o.V 9 F T 9 9 l 1.# l 1.T o.o.l 1.# l 1.9 9 I V 9 l 1.O l 1.9 o.9 9 o.l 9 F ' o.h 1.# l 1.l ",
"9 e d F l 9 t l 1.# d <.o.I l 7 h o...l w F I t 9 l 1.# l 1.o.o.o.l 1.# l 1.9 e V 9 9 l >.X h 1.9 o.9 9 o.l 9 l o.o.h 1.# l 1.l ",
"4 9 9 l 9 u w l 1.# l 1.' o.F 7 V @.o.l 7 F J 4 9 l >.X l 1...o.T l 1.# l 1.5 9 9 9 9 l 1.# b 1.9 o.9 9 ' h 4 l o.o.l 1.# l 1.F ",
"9 9 9 9 9 9 u h =.# l 1.o.o.' F o.o.' u 3 T U w 9 l 1.O l <.o.o.T l 1.O l ;.9 9 9 9 9 l 1.# l 1.9 o.9 9 o.F 9 l ' o.b 1.# l 1.U ",
"3 9 9 9 u w h b >.# l =.o.@.o.o.' o.T 4 3 T I 9 u l 1.# l >.o.o.F h $.O k $.9 9 7 9 u l 1.# l >.9 o.e 9 o.V e 9 T o.l 1.# l 1.T ",
"l 9 9 9 4 u l h *.# l <.T o.o.o.o.o.T u 9 o.T t 4 l 1.# l <.o.T F l $.  h &.J 9 u 4 u l 1.# x 1.3 ' 9 9 o.T 9 9 T o.l 1.# l 1.T ",
"l 3 3 9 9 u V l >.# l 1.T o.o.o.o.o.F 9 9 } T e 9 l 1.O l 1.o.T u l 1.# l 1.F 9 9 4 u h 1.# l 1.e ] 9 9 T T 9 9 F o.l 1.# l 1.b ",
"I l u 3 4 l F h 1.# l 1.F o.o.o.o.o.l 9 9 ' F 9 9 d 1.# l 1.` F w l 1.# l 1.T F 9 u F l 1.# l 1.9 o.9 9 T o.3 9 F o.h 1.# b <.h ",
"T h u u 9 h E h 1.# l 1.h o.o.o.o.o.4 9 7 o.N 9 7 h >.# l 1.T Z u l 1.# l 1.o.V 9 V F h 1.# l 1.9 ' 9 9 F o.l 9 h T l >.# l 1.4 ",
"T F h u l F T l 1.# l 1.u T o.o.o.T u 9 l o.9 9 w l <.# l 1.T t w l 1.# l 1.o.T F F T l 1.# l 1.e o.9 9 V o.l 9 l T l <.@ l 1.9 ",
"T T l h l T J k 1.# l *.9 V o.o.` F 9 9 F ' 4 u 9 l $.# h 1.Z 9 u l 1.# l 1.o.] N U ' l 1.# l 1.9 o.e 9 l ..l 9 h N l <.  l 1.u ",
"V T F h Z T h h 1.# l 1.9 h T o.T l 7 9 J o.9 9 7 l >.# V $.u 9 7 l 1.# l 1.o.o.T o.o.l 1.# l 1.9 ' 9 e l o.F 7 u F l >.  l 1.3 ",
"l I W F T T h h 1.# l 1.4 u l I A e 9 9 T ' 3 e w l =.$ h =.4 t d l *.# l 1.o.o.o.o.o.l 1.# l 1.9 o.9 9 l o.Z l e l l >.# l 1.u ",
"d T T F T U w h >.# l <.u u 9 h l 9 w u o.T 7 9 u l <.  l <.u 4 h l 1.# l 1.o.o.o.o.o.h 1.# l 1.9 o.3 9 l o.T l 9 v l >.# h $.3 ",
"4 T o.o.o.T u l 1.# l 1.d 9 3 9 9 9 9 h o.T e 9 9 l 1.# l 1.u 9 V l 1.O h =.o.o.o.' U l 1.# l 1.9 o.9 9 u ..T l 9 l l 1.# l 1.9 ",
"t Z o.o.o.T w l 1.O l <.l 9 9 9 3 7 9 F ` F 9 9 9 l 1.# l 1.e l T l 1.X l <.T o.o.o.T l 1.X h 1.9 o.u 9 4 T o.V 7 9 l 1.# l 1.9 ",
"9 l T o.o.T 9 l 1.# l =.V u 9 4 w u 4 W o.F 7 9 9 l 1.# l 1.e F o.l 1.# l 1.U o.o.o.F h 1.X l 1.e o.9 9 9 I o.V h 4 l 1.# l 1.u ",
"9 l T o.o.Z 9 l 1.# l =.I h e u u 4 u T o.w 9 9 9 l 1.# l 1.h T o.l 1.# l 1.F o.o.o.F h =.O h >.e ] 9 5 9 V o.T l u l 1.# l 1.l ",
"9 9 F o.J V 9 l >.# l 1.o.b 5 9 9 9 l o.T 9 9 t 9 l 1.# l 1.T o.o.l 1.# l >.F o.o.T l l 1.# l <.4 o.9 9 9 Z o.T V u l 1.# l >.l ",
"9 9 h U I l 9 h <.# l 1.o.V 9 9 9 9 F ' I e 9 N 9 l 1.  l 1.o.o.' l 1.# l 1.l U o.T l l 1.# l *.9 o.l e u l T o.N l l 1.@ l *.F ",
"9 9 l U F h e v 1.# l 1.T T h 9 9 9 T o.V 4 9 F 9 l >.O l 1.o.o.o.l 1.# l 1.l T o.Z t l 1.# l 1.9 o.l 9 4 l Z o.T l l 1.# l <.F ",
"9 9 9 F N u 4 l 1.# l 1.T ' b 9 u l T o.9 9 9 T 9 l <.  l 1.o.o...l 1.# l ,.9 F T l 9 l 1.# l 1.9 o.l 7 t 9 F ..T l l 1.# l 1.J ",
"9 9 5 l h 9 9 h 1.# l =.F o.T h 9 l o.o.4 t 7 T u l 1.# l 1.o.o.o.l 1.# l 1.u h Z e 9 l >.X l 1.4 ..l 9 3 u l T o.l l 1.# l 1.T ",
"l 9 9 9 9 9 l b 1.# h 1.3 I o.T h o...T 9 9 3 U 4 l 1.$ l 1.o.o.o.l 1.# l >.3 u l 9 9 l 1.# l 1.u T F 9 u u l A o.T l 1.# l 1.o.",
"l 9 9 9 9 9 l l 1.# l =.e F o.o.o.o.` F 9 9 7 o.u l 1.# l 1.o.o.T l *.# l 1.u 3 9 9 u h 1.# l 1.7 T T 9 3 9 9 Z o.T l 1.# l 1.o.",
"Z 9 9 9 9 9 T l 1.# l 1.4 e o.o.o.o.T 9 9 9 Z o.9 l 1.# l 1.o.o.T l 1.# h 1.4 u 9 9 e h 1.# l 1.3 F U l 9 9 9 h T T l 1.# l 1.o.",
"F l 9 9 9 h T d 1.# l 1.9 9 Z T o._ V 9 e u T o.e l 1.# l 1...T Z l =.# l 1.u u 9 9 u l 1.# l 1.9 F _ l 9 9 9 9 b F l $.X l 1.o.",
"I h 4 9 9 l T l 1.# l 1.9 9 9 V T N 3 w 9 u T o.9 l 1.# l 1.o.T F l 1.# l 1.9 e 9 9 u h 1.# l 1.3 9 ..l 9 9 9 9 9 l l <.# l >.o.",
"K F 9 9 9 l T l 1.# l 1.9 9 9 9 V 9 u 4 9 I ' ' F l 1.# l >.U Z 9 l 1.# l 1.9 9 9 7 9 l 1.# l 1.Z 9 o.V 9 9 e 4 9 9 h 1.# l 1.o.",
"Z F N F V F F b 1.# l 1.Z 9 9 9 9 9 7 u Z V N F V l $.# l 1.F e 7 l 1.# l 1.Z 9 9 4 F l 1.# l =.F 9 V F 9 9 9 u u 9 l 1.# h =.F "
};
