/* XPM */
static char *_2de42e0a7094a2dbf94e4a85c6c4f296npWI1EX0vU6XQmn[] = {
/* columns rows colors chars-per-pixel */
"64 64 192 2 ",
"   c gray11",
".  c gray12",
"X  c #20201E",
"o  c #372B13",
"O  c #372D14",
"+  c #382C12",
"@  c #3A2C12",
"#  c #3A2B14",
"$  c #3A2B16",
"%  c #382C14",
"&  c #392D15",
"*  c #3B2C15",
"=  c #382C16",
"-  c #3F2F16",
";  c #3E3016",
":  c #3F3117",
">  c #211F20",
",  c #202020",
"<  c gray13",
"1  c #202022",
"2  c #272727",
"3  c #282826",
"4  c #292728",
"5  c #282828",
"6  c gray16",
"7  c gray17",
"8  c #2C2C2A",
"9  c #2B2B2D",
"0  c #2D2B2C",
"q  c #2B2D2C",
"w  c #2C2C2C",
"e  c #2D2D2D",
"r  c #2C2C2E",
"t  c #2F2F2F",
"y  c gray19",
"u  c #313131",
"i  c gray20",
"p  c #323433",
"a  c #343432",
"s  c #333534",
"d  c #343434",
"f  c #373735",
"g  c #343436",
"h  c #373737",
"j  c #363837",
"k  c #383836",
"l  c #393937",
"z  c #393738",
"x  c #373938",
"c  c #37383A",
"v  c gray22",
"b  c #393939",
"n  c #38383A",
"m  c #3F3F3F",
"M  c #402E16",
"N  c #412F17",
"B  c #403016",
"V  c #403017",
"C  c #473715",
"Z  c #463716",
"A  c #473716",
"S  c #4A3716",
"D  c #4A3717",
"F  c #463815",
"G  c #473916",
"H  c #473817",
"J  c #483816",
"K  c #483817",
"L  c #403019",
"P  c #41311A",
"I  c #473618",
"U  c #483719",
"Y  c #483918",
"T  c #493918",
"R  c #543D1B",
"E  c #553D1B",
"W  c #543B1C",
"Q  c #563B1D",
"!  c #553C1D",
"~  c #543D1D",
"^  c #563E1C",
"/  c #553C1E",
"(  c #573C1E",
")  c #563D1E",
"_  c #563D1F",
"`  c #553E1E",
"'  c #5D3E1F",
"]  c #5C3F1F",
"[  c #5A3F21",
"{  c #5C3F21",
"}  c #5E3F20",
"|  c #3E403F",
" . c #5A401F",
".. c #5D401E",
"X. c #5E401E",
"o. c #5B4120",
"O. c #5B4022",
"+. c #5D4020",
"@. c #5F4021",
"#. c #5E4121",
"$. c #5D4022",
"%. c #40403E",
"&. c #6B4723",
"*. c #6C4923",
"=. c #6C4824",
"-. c #6D4925",
";. c #6E4824",
":. c #734B27",
">. c #744D26",
",. c #774D27",
"<. c #744C28",
"1. c #744C29",
"2. c #744E29",
"3. c #3F4140",
"4. c #3F4042",
"5. c gray25",
"6. c #414141",
"7. c gray28",
"8. c #484647",
"9. c #484846",
"0. c #494846",
"q. c #494748",
"w. c #474948",
"e. c #484848",
"r. c #494949",
"t. c #4A4849",
"y. c #48484A",
"u. c #4B4B4B",
"i. c #4C4A4B",
"p. c #4C4C4A",
"a. c #4B4D4C",
"s. c #4C4C4C",
"d. c gray30",
"f. c #4E4C4D",
"g. c #4C4C4E",
"h. c #535353",
"j. c #545452",
"k. c #555553",
"l. c #555354",
"z. c #535554",
"x. c #535456",
"c. c gray33",
"v. c #555555",
"b. c #565455",
"n. c #545456",
"m. c #545557",
"M. c #555557",
"N. c #5B5B5B",
"B. c gray36",
"V. c #5D5D5D",
"C. c #5D5D5F",
"Z. c #636361",
"A. c gray39",
"S. c #636562",
"D. c #646462",
"F. c #656364",
"G. c #636564",
"H. c #646464",
"J. c #656565",
"K. c #646466",
"L. c #6F6F6F",
"P. c #70706E",
"I. c #71716F",
"U. c #716F70",
"Y. c #716F72",
"T. c #6F7170",
"R. c gray44",
"E. c #717171",
"W. c #707072",
"Q. c #7B7B7B",
"!. c #7C7C7A",
"~. c #7D7C7A",
"^. c #7D7D7B",
"/. c #7D7B7C",
"(. c #7D7B7E",
"). c #7B7D7C",
"_. c #7C7C7C",
"`. c gray49",
"'. c #7E7C7D",
"]. c #7C7C7E",
"[. c #814F2C",
"{. c #804F2E",
"}. c #80502C",
"|. c #8B8B8B",
" X c #8C8C8A",
".X c #8B8D8C",
"XX c gray55",
"oX c #8D8D8D",
"OX c #8C8C8E",
"+X c #999798",
"@X c #989898",
"#X c gray66",
/* pixels */
"`.`._.I Q +.+.<.+.+.+.+.+.+.+.+.+.+.+.+.+.X.Q L D +.+.+.+.~ Q Y l.A./.).Y.R.R.R.8 0 w 9 8 w w y.D.R.h.H.v.v.d.s.s.s.v.B.B.H.R.`.",
"`.L.R.z.Y ~ } <.+.+.+.+.+.+.&.~ +.+.+.+.+.+.~ B J +.+.+.~ J J v.F.).`.R.).Y._._.y.q w 9 9 w y.A.R.v.A.v.s.y.h.j.V.H.H.H.A.H.A.R.",
"R.R.R.H.v.A Q =.+.+.+.+.+.+._ _ Q ~ +.+.+.X.~ L H } ~ ~ I y.v.H.F.w.} +.+.} 9.G.H.y.w 8 8 y.D.R.v.H.v.s.h.V.H.H.H.A.H.H.H.H.H.H.",
"j.R.`.R.A.v.H =.+.+.+.+.+.+.+.X.~ ~ } +.+.+.I B A ~ D D v.A._.w.+.+.H Y ; Y : U H.D.y.y.y.H.R.v.A.H.H.A.H.A.V.j.v.s.s.s.s.s.s.s.",
"s.j.Y.R._.S.Y =.+.+.+.+.+.' +.+.&.[ _ +.' ~ J B J A h.G.`.Q.y.X.Y H Y J L Y N D y.`.A.D.F.T.l.G.B.B.B.V.N.B.V.V.B.B.B.V.V.B.B.B.",
"i.a.v.R.R.Y.A ~ +.+.+.+.+._ +.+.+.+.' } ~ L B U v.H.`.!.F.o.+.D J D Y J B J L B # A.OX#XT.l.G.l.s.s.s.s.s.s.s.y.s.s.s.s.s.s.s.s.",
"s.s.s.v.R._.j.H ~ { +.+.+.+.+.+.+.+.+.~ B V 0.z.A.`.Q.y.+.D U J U Y H H L - J & O G.#X/.l.H.h.a.s.s.s.s.e.s.s.s.y.s.s.s.s.s.s.s.",
"s.s.a.s.v.L._.j.Z [ +.+.+.+.+.+.+.Q ~ N Y l.H.A.`.A.+.+.A H D J H D D Y B N I o # G.@X).A.v.s.s.s.s.s.s.s.s.s.s.s.s.s.s.s.s.s.s.",
"s.s.s.s.y.h.Q.A.h.I ~ } +.} +.~ ~ V V h.D.H.`._.y.+.~ H J H Y J H B J Y - & A O % H.+XD.z.s.s.s.s.e.s.s.s.s.s.s.s.s.d.7.y.d.d.y.",
"s.s.s.s.0.7.`.`.A.z.U ~ ~ Q ~ N L h.F.`._.`.H.} +.~ D H Y H D H J L H D N % : # @ A.OXF.l.a.s.s.e.s.s.s.s.s.s.s.s.s.d.d.d.d.d.d.",
"s.s.s.s.w.q.`.L.).H.v.- : ; N 8.v.A._.`.A.w.[ ~ ~ D Y D D I D H Y A H J U & - % 5.H.OXD.B.s.0.s.s.s.q.a.s.s.s.s.s.d.d.d.d.d.d.p.",
"s.s.s.y.q.w.R.R._.Q.A.v.l.j.v.v.H.Q.).H.} +.Q J Y J Q J Y H Y J D O D Y A % & % s.R.Q.H.B.s.a.d.e.s.s.s.s.s.a.9.y.d.y.d.d.d.y.9.",
"s.s.s.s.y.f R.L.G.h.j.h.G.R.@X@XOXL.A.+.~ Q J Q Q A H D J Y D J H O H J J & + & v.L.OXH.v.s.s.s.s.s.s.s.s.s.s.9.7.s.e.e.7.9.s.s.",
"s.s.d.y.n A.`.A.v.l.v.v.w.F.@XOXOXG.X.H Q ~ J ~ ~ U J J H H H H H # D H A & o & H.R.`.H.v.s.s.s.s.s.s.s.s.d.s.s.y.s.y.e.0.9.s.s.",
"d.d.0.j A.`.R.v.h.v.h.h.q.0.R.OX).} ~ J +.Y H H H H A U J D H H H & A D Y % % m H.Q.`.H.h.s.s.s.s.s.s.s.s.d.s.s.s.s.e.e.e.e.s.s.",
"d.y.n H._.`.A.h.v.h.v.j.y.y.y.H.v.} D X.W U D Y J D Y J J U J D L & J Y D O % s.R.`.Q.D.v.s.s.s.s.s.s.s.s.s.s.s.s.s.e.e.e.e.s.9.",
"7.k F.).).Y.H.z.z.l.v.l.3.s.l.w.F.X.D X.F J ~ D J Y D J J Y Y D - @ U J - % o v./.).).j.d.d.d.d.s.s.s.s.s.s.s.a.a.s.g.s.s.s.y.k ",
"f D.G.q.q.G.T.l.l.z.v.a.3.l.z.F.G.+.U ~ H J H A H A H H H D J Y O & J J : & # G.=.X.A.v.s.d.y.d.s.s.s.s.q.s.s.s.s.s.s.s.s.y.n 5.",
"A.G.q.~ Q w.F.G.z.l.l.5.5.z.l.z.T.+.~ ~ H H J J H H J J H Y D H @ - J L & - V.&.+.+.z.H.%.s.d.s.s.s.s.s.s.s.s.s.s.a.s.w.%.k %.5.",
"D.0.~ } H Q w./.q.h.3.3.5.l.z.l.A.H._ Q J D A Y D A Y H H J H ; # : o & L H.*.X.+.+.J H.H.5.y.s.s.s.s.s.s.s.s.s.q.m z g f n 5.H.",
"q.~ +.A Y H B H.Y.9.3.l.5.z.z.v.e._.w.Q J J U J H H J H Y Y - & O % % s.A.).U Y H Y D L.P.H.5.5.5.y.q.w.e.e.5.5.f f n 5.h l.F.G.",
"Q +.Y Y D H B y.).F.q.z.5.l.h.j.q.R.G.- U J Y Y D Y Y D Y I % O % % s.F._._.`.A.H.H.F..XOXF.D.5.h f d d i i d i z 5.%.z l.A.).q.",
"} Y H J H D B B F.T.q.z.5.v.v.v.h A._.e.J H D J Y J Y J Y # O # m V.A.v.M.l.h.l.z.l.`..X@X@XR.A.l.x 5.5.5.5.5.5.3.5.z z.F.).q.~ ",
"J J D ~ H Y B J G./.G.q.3.l.v.s.n H.`.H.B H D Y I Y D A O & m v.H.A.l.e.3.z 3.5.5.m z./.@X@XOX`.G.l.h 5.5.m 5.5.n z z.F.).q.~ +.",
"Y H J D U J B J y.`.`.A.5.v.y.0.n H.`._.0.O : H H I B & # v.A.`.H.v.q.3.5.x z 3.5.5.5.v.Q. XOXP.`.A.v.h x z z x n j.G.).F.W +.H ",
"D H Y J J J L U B D.`.R.x 0.y.y.k R.T._.A.o # = & % # # 3.A.`.A.v.y.5.3.m z 3.z 5.5.n 5.R.`.R.h.h.`.A.v.z x x z v.H./.A.w.} D Y ",
"D ~ Q Y H H # Y - v.L.`.D.n n j R._._._._.e.# O % % 3.s.B._.j.h.y.5.y.q.5.x 5.f m 5.k y.A.R.H.7.w.v.).A.z.l.l.z.S./.G.e.R H H H ",
"J ~ ~ D H A # J B 7.`.|.R.H.D.Y._.z.=.=.v.A.w.7.s.B.B._.`.h.v.y.5.5.0.w.5.z 5.5.f m f h.H.R.v.e.e.e.v./.!.!. XXX/.T.q.~ H D Y J ",
"Y D J ~ U J & A L 0._.R.XXR.R.S.=.=.+.X.o.} G.F.A.R._.R.h.v.y.%.5.3.5.5.5.i 5.5.z k u v.H.H.w.0.e.e.e.A./..XXX).R.H.Q H J H H J ",
"J Y Y H D B & J V w._.Y.R.R.Y.=.} } +.+.o.X.W /.`.R.R.v.j.y.m 5.5.q.m 5.5.f 5.5.n n e.A.R.h.v.y.e.e.e.v.F.T.Y.S.V.j.R H Y Q ~ Q ",
"Y H J D J B ; J V z.R..XR.T.Y.S.+.+.o.+.} +.H ).R.`.h.h.v.5.5.5.5.5.m 5.m i 5.5.h i v.R.`.`.H.H.H.G.H.H.H.`.R.B.l.V.Q H U ~ Q ~ ",
"D Y Y Y Y # L ; V l.`./.S.l.S./.).} +.+.Q H Y /._.h.v.e.h.5.5.%.5.5.5.5.m f 5.5.z u A.h.<.<.<.<.<.1.<.<.<.Y +.1.B.F.Q Y J Q ~ Q ",
"D Y D Y N o J L y.H./.G.l.V.z.F.!.`.Q ~ J H H.).v.z.w.q.z.0.5.5.5.5.5.5.5.y 5.5.d l.R.=.=.=.+.+.+.+.+.+.+.Y } } +.).~ Y U D A H ",
"H J H J ; & B y.D.F.G.l.B.z.l.z.F.`./.H.v.l.`.F.h.q.5.w.l.y.5.5.5.5.5.5.n y 3.z y v.H.-.} =.+.+.+.o.+.+.+.Y +.+.~ F.Q U D ~ J H ",
"H J J J & ; w.H.H.`.z.B.z.v.z.l.h.H.`.|.Q.OX/.v.q.3.5.q.z.q.5.5.5.5.5.5.h t 5.z u F.M.}.+.=.} +.~ +.+.+.+.H +.+.Q H.~ Y J H J Y ",
"Y A D N & y.F.S.Y.G.l.B.z.l.l.v.h.v.A.`. X|. Xc.5.5.5.w.l.a.5.5.5.5.5.5.g u m u H.R.s.}.+.-.+.+.X.+.+.+.+.J +.+.~ F.L J Y H D D ",
"D D J & w.F.G._.`.z.B.l.l.z.l.z.l.v.h.H.OX@X@Xv.5.5.5.q.h.s.5.5.5.5.5.5.i u h w.R.R.-.}.+.=.+.+.} +.+.+.[ J +.+.Q G.w.N D D A H ",
"H H B 7.F.S.Y._.S.l.B.v.z.l.z.l.v.h.h.v.G.+X@XH.5.5.5.w.v.s.y.%.5.5.5.5.u t d v./.G.=.,.+.=.} +.+.+.+.X.+.~ +.+.Q G.F.q.; Y H H ",
"J L y.D.G.Y./.G.l.B.z.l.B.z.l.z.h.v.y.v.l.G.XXT.z m 5.q.h.s.y.5.5.m 5.5.u t t F./.z.:.}.o.} +.+.+.+.+.[ ~ ~ } +.~ F.`.G.0.B J J ",
"L w.F.H./.`.T.F.z.z.l.z.l.h.z.l.v.h.v.7.z.l.XXXXz.x z w.v.y.s.5.5.5.5.3.t u q.T.T.-.+.,.+.=.+.+.+.+.+.+.Q +.} } Y H./.!.G.y.L B ",
"0.G.D.OX X`.S.l.z.l.z.l.B.z.l.z.h.v.z.5.l.z.F.T.R.u h h v.m g.5.5.5.5.5.y y j./.G.=.+.[.=.[ } } +.+.+.' ~ +.+.+.Y F.`.`./.D.y.0.",
"G.F.@X@XOXD.l.z.l.z.l.z.B.l.z.l.v.h.l.3.w.l.z.F.A.e.t f t 3.s.m 5.5.5.5.u u v.).l.=.&.,.<.[ } o.+.+.+.~ } +.+.+.U G.w w n v.F.G.",
"F.`.@X@XT.l.z.l.l.B.B.z.z.l.z.B.h.h.v.0.5.z.l.z.H.v.e.u u h e.e.m 5.5.z w y.F.T.*.' [ <.{.&.+.+.+.+.[ Q +.+.} [ J H.w w q 0 z z.",
"q q.OXOXF.z.l.z.B.B.B.l.l.z.l.z.v.v.h.y.m l.z.l.z.y.h.H.h.f g w.5.5.5.x u v.R./.=.} [ =.,.+.o.o.+.+.[ +.+.X.o.+.J H.w 0 9 q . 0 ",
"q , 9._.z.l.z.l.B.B.B.z.z.l.z.l.h.q.l.w.5.w.l.v.z.y.D.H.v.y p p z 3.5.n u F.`.).~ } +.+.1.+.+.+.+.+.+.+.+.Q +.} J H.w w 0 0 , q ",
"0 > w.Y.l.z.l.z.B.B.v.h.l.z.l.z.z.z.v.q.5.q.l.z.0.n H.OXOXv.u g d 5.5.d q.T.R.R.G.~ +.+.=.=.+.+.+.+.+.+.+.+.+.+.J H.w w 0 q , 0 ",
", e.H.H.z.l.z.l.z.l.z.B.z.h.z.l.l.w.l.w.5.w.z.q.n 0.!.OX|.!.h.u d z x y z._.R.P./.G.Q +.+.=.} } } +.+.~ ~ } } ~ Y H.w w w X q 0 ",
"w.A.H.G.q.v.z.B.B.h.l.l.z.l.l.h.z.q.z.q.d q.7.x y.h.`.y.J y.`.j.t y y y Y._.D.n x F.G.Q ~ } =.o.+.+.+.~ ~ } ~ H 0.A.w w w X 0 q ",
"F.T.R.R.A.y.v.V.N.v.h.v.h.v.h.v.z.q.z.q.p 5.n q.z.F.y.~ Y N y.`.H.h.v.H.`.D.n w 8 z H.R.H.~ X.+.+.+.} +.' ~ D q.G.H., , > . > , ",
")./.R.R.`.D.7.7.v.h.v.h.v.h.h.l.h.e.l.3.f n w.v.F.w.Q Y J ; D B y._._._.A.n 8 w 8 0 n D.R.H.~ ~ +.+.+.+.~ J 9.G.R.!.`.q.9.w.q.w.",
"/.T._.OXOX|.A.e.e.h.h.v.v.h.v.h.0.e.j.| u q.z.H.y.~ U J Y N U B H 9._._.y.k w w w 8 w n H.R.R.j.Q ~ ~ A H y.G.v.j.h.z.z.z.F.)./.",
"/.j.;.&.v. XOXA.e.h v.h.h.v.h.v.y.0.y.g q.z.G.q.~ H D J J N Y ; U : `.D.n 6 8 9 9 6 4 8 n H._.Y.z.Q Y y.q.G.F.z.v.l.v.l.h.w.F.).",
"-.-.' X.*.&.z._.D.y.k y.v.v.h.y.0.0.n q.v.H.q.~ J D Y D H ; Y N J B !.n w w 5 w w 3 6 w q z G.).Y.v.q.w.G./.l.j.l.s.z.M.l.w.F.).",
"+.' _ &.+.X.=.=.v.D.y.k e.h.0.y.n j 0.G.y.q.~ H I J J N Y B J B B y.H.n w w 9 X 6 8 q w 0 q h F._.R.G.S..XG.s.s.l.z.l.j.a.q.G./.",
"+.~ +._ +.+.+.} &.A H.y.z w.w.z y.j.D.y.~ } ~ D Y U D Y D L - L y.H.k w w w w w , , w 6 0 0 w j S.`.Y.XX.Xl.a.s.z.l.j.v.s.e.F.=.",
"X.+.+.+.+.} +.~ +.J +.' w.z x 7.l.D.y.~ +.R Y J A Y H ; H B B B j.k n w w w w 9 6 , . 5 q 0 w 0 z S._.XXF.z.l.z.l.z.h.d.y.7.G.=.",
"+.+.~ Q +.+.+.Q +.H X.o.Q y.y.c.D.q.~ W } ~ H H H H J B U V - e.H.n w 9 3 5 9 8 w 6 , . 5 q 0 q w j G./.z.l.z.v.z.l.h.q.w.l.=.+.",
"+.} ~ ~ +.+.+.~ +.J Q A H z.j.F.8.~ D ~ } A D Y U D Y L Y : q.G.y.k w w 5 5 6 w 0 6 , , > 6 q 0 w 9 z G.`.z.l.l.l.z.e.s.q.G.=.+.",
"+.+.+.+.+.+.~ U ~ V U D z.S.H.y.~ D D R +.H ~ J J Y J B - V l.G.k k 8 w 5 6 w 6 w w , , . . 5 q w w q z F.A.h.z.z.a.q.e.z.=.+.+.",
"+.+.+.' +.+.Q U Y V Y c._.`.).0.D J H ~ +.H Y D Y D U : N q.G.z w n w w 9 w 8 9 w q 5 , , 5 , 5 w w 0 q z G.s.s.s.q.s.e.l.=.+.+.",
"+.+.+.+.+.+.~ Y V - h.`._._._.h.U J J W } D J H A J Y N w.A.y.x w k w w 8 w w w w w 6 , , , 5 > 6 0 q 0 0 , G.s.q.z.l.w.=.} +.+.",
"+.+.+.+.+.} J ; V v.].v.m v.`.H.w.H Y Q +.U Y H H Y J B v.D.k w w n w w w w 5 5 w w 0 5 ,   5 5 , 6 w w q , l.A.z.l.a.F.=.+.+.+.",
"o.+.+.X.+.~ U - M./.v.m 5.5.h.`.v.D U ~ +.H D D J U L 0.H.n w 8 w n w w 9 w 5 5 q w q 5 ,   , q , , 6 q 0 , l.).s.s.G.-.+.} +.+.",
"+.+.+.+.Q V V x._._.5.5.5.5.m z.H.J J ~ U J Y J J : q.z.D.w w w w k w w 3 w 8 9 0 q 0 5 ,   > q 5 , > 5 q > z./.).F.A.=.+.+.+.+."
};
